<?xml version="1.0" encoding="iso-8859-1"?>
<!-- Uploaded to: SVG Repo, www.svgrepo.com, Generator: SVG Repo Mixer Tools -->
<svg height="800px" width="800px" version="1.1" id="Layer_1" xmlns="http://www.w3.org/2000/svg" xmlns:xlink="http://www.w3.org/1999/xlink" 
	 viewBox="0 0 512 512" xml:space="preserve">
<path style="fill:#576573;" d="M439.652,133.565c9.217,0,16.696-7.473,16.696-16.696V50.087c0-9.223-7.479-16.696-16.696-16.696
	c-9.217,0-16.696,7.473-16.696,16.696v50.087h-59.083l-7.885-52.566c-1.229-8.173-8.25-14.217-16.511-14.217H172.522
	c-8.261,0-15.282,6.044-16.511,14.217l-7.885,52.566H89.043V50.087c0-9.223-7.479-16.696-16.696-16.696s-16.696,7.473-16.696,16.696
	v66.783c0,9.223,7.479,16.696,16.696,16.696h70.77c-8.986,59.905-42.775,285.165-51.757,345.043H72.348
	c-9.217,0-16.696,7.473-16.696,16.696S63.131,512,72.348,512h66.783c9.217,0,16.696-7.473,16.696-16.696
	s-7.479-16.696-16.696-16.696h-14.004l5.009-33.391h251.729l5.009,33.391H372.87c-9.217,0-16.696,7.473-16.696,16.696
	S363.652,512,372.87,512h66.783c9.217,0,16.696-7.473,16.696-16.696s-7.479-16.696-16.696-16.696h-19.013
	c-2.404-16.026-48.312-322.075-51.757-345.043H439.652z M325.098,66.783l5.009,33.391H181.894l5.009-33.391H325.098z
	 M194.188,244.87l61.817-42.86l61.817,42.86H194.188z M315.153,278.261l-59.048,38.593l-59.155-38.593H315.153z M226.701,181.692
	l-63.657,44.136l11.993-79.955L226.701,181.692z M215.895,133.565h80.221l-40.111,27.81L215.895,133.565z M285.309,181.692
	l51.653-35.813l11.992,79.941L285.309,181.692z M153.455,289.752l72.124,47.053l-87.789,57.378L153.455,289.752z M171.815,411.826
	l84.302-55.099l84.455,55.099H171.815z M286.642,336.776l71.906-46.997l15.615,104.096L286.642,336.776z"/>
<path style="fill:#FFD15D;" d="M72.348,66.783c-18.413,0-33.391-14.978-33.391-33.391S53.935,0,72.348,0
	s33.391,14.978,33.391,33.391S90.761,66.783,72.348,66.783z"/>
<path style="fill:#485566;" d="M439.652,33.391c-9.217,0-16.696,7.473-16.696,16.696v50.087h-59.083l-7.885-52.566
	c-1.229-8.173-8.25-14.217-16.511-14.217h-83.718v33.391h69.337l5.009,33.391h-74.346v33.391h40.356l-40.111,27.81l-0.245-0.17
	v40.973l0.245-0.17l61.817,42.861h-62.062v33.391h59.392l-59.048,38.593l-0.344-0.225v40.331l0.355-0.233l84.457,55.099h-84.812
	v33.391h126.104l5.009,33.391H372.87c-9.217,0-16.696,7.473-16.696,16.696S363.652,512,372.87,512h66.783
	c9.217,0,16.696-7.473,16.696-16.696s-7.479-16.696-16.696-16.696h-19.013c-2.404-16.026-48.312-322.075-51.757-345.043h70.77
	c9.217,0,16.696-7.473,16.696-16.696V50.087C456.348,40.864,448.869,33.391,439.652,33.391z M285.309,181.692l51.653-35.813
	l11.992,79.941L285.309,181.692z M374.163,393.874l-87.521-57.098l71.906-46.997L374.163,393.874z"/>
<path style="fill:#F29E1B;" d="M439.652,66.783c-18.413,0-33.391-14.978-33.391-33.391S421.239,0,439.652,0
	c18.413,0,33.391,14.978,33.391,33.391S458.065,66.783,439.652,66.783z"/>
</svg>