<?xml version="1.0" encoding="UTF-8" standalone="no"?>
<!-- Created with Inkscape (http://www.inkscape.org/) -->

<svg
   id="svg2"
   version="1.1"
   inkscape:version="1.2.2 (b0a8486541, 2022-12-01)"
   width="400"
   height="400"
   xml:space="preserve"
   sodipodi:docname="logo.svg"
   xmlns:inkscape="http://www.inkscape.org/namespaces/inkscape"
   xmlns:sodipodi="http://sodipodi.sourceforge.net/DTD/sodipodi-0.dtd"
   xmlns:xlink="http://www.w3.org/1999/xlink"
   xmlns="http://www.w3.org/2000/svg"
   xmlns:svg="http://www.w3.org/2000/svg"
   xmlns:rdf="http://www.w3.org/1999/02/22-rdf-syntax-ns#"
   xmlns:cc="http://creativecommons.org/ns#"
   xmlns:dc="http://purl.org/dc/elements/1.1/"><metadata
     id="metadata8"><rdf:RDF><cc:Work
         rdf:about=""><dc:format>image/svg+xml</dc:format><dc:type
           rdf:resource="http://purl.org/dc/dcmitype/StillImage" /></cc:Work></rdf:RDF></metadata><defs
     id="defs6"><clipPath
       clipPathUnits="userSpaceOnUse"
       id="clipPath16"><path
         d="M 0,612 H 792 V 0 H 0 Z"
         id="path18"
         inkscape:connector-curvature="0" /></clipPath><clipPath
       clipPathUnits="userSpaceOnUse"
       id="clipPath24"><path
         d="M 14.27,543.64 H 777.73 V 68.3599 H 14.27 Z"
         id="path26"
         inkscape:connector-curvature="0" /></clipPath><clipPath
       clipPathUnits="userSpaceOnUse"
       id="clipPath28"><path
         d="M 777.73,68.36 H 14.27 v 475.28 h 763.46 z"
         id="path30"
         inkscape:connector-curvature="0" /></clipPath><radialGradient
       fx="0"
       fy="0"
       cx="0"
       cy="0"
       r="1"
       gradientUnits="userSpaceOnUse"
       gradientTransform="matrix(-293.00171,0,0,161.15094,474,329)"
       spreadMethod="pad"
       id="radialGradient32"><stop
         style="stop-opacity:1;stop-color:#ffffff"
         offset="0"
         id="stop34" /><stop
         style="stop-opacity:1;stop-color:#d5e20f"
         offset="1"
         id="stop36" /></radialGradient><clipPath
       clipPathUnits="userSpaceOnUse"
       id="clipPath60"><path
         d="M 382.548,462.122 H 614.414 V 339.703 H 382.548 Z"
         id="path62"
         inkscape:connector-curvature="0" /></clipPath><clipPath
       clipPathUnits="userSpaceOnUse"
       id="clipPath76"><path
         d="m 537.823,378.559 c -9.405,-11.32 12.558,-16.03 13.865,-106.588 v 0 c 7.107,-1.622 15.922,0 26.852,0 v 0 c 16.548,0 37.545,7.375 40.492,25.64 v 0 c 7.084,-5.476 57.654,2.759 57.654,38.442 v 0 c 0,23.15 -20.891,49.809 -46.063,53.099 v 0 c -8.445,1.104 -17.5,0.772 -22.932,-3.444 v 0 c -4.899,6.396 -18.469,12.779 -29.151,12.779 v 0 c -16.053,0 -30.524,-7.661 -40.717,-19.928"
         id="path78"
         inkscape:connector-curvature="0" /></clipPath><linearGradient
       x1="0"
       y1="0"
       x2="1"
       y2="0"
       gradientUnits="userSpaceOnUse"
       gradientTransform="matrix(0,127.23633,127.23633,0,606.08691,271.25)"
       spreadMethod="pad"
       id="linearGradient84"><stop
         style="stop-opacity:1;stop-color:#3e3d40"
         offset="0"
         id="stop86" /><stop
         style="stop-opacity:1;stop-color:#87888a"
         offset="1"
         id="stop88" /></linearGradient><clipPath
       clipPathUnits="userSpaceOnUse"
       id="clipPath96"><path
         d="m 537.823,378.559 c -9.405,-11.32 12.558,-16.03 13.865,-106.588 v 0 c 7.107,-1.622 15.922,0 26.852,0 v 0 c 16.548,0 36.044,6.612 40.492,25.64 v 0 C 622.52,312.535 611.167,336.25 610,349 v 0 c -2.056,22.467 -1,21.334 -2.309,36.708 v 0 c -4.899,6.396 -18.469,12.779 -29.151,12.779 v 0 c -16.053,0 -30.524,-7.661 -40.717,-19.928"
         id="path98"
         inkscape:connector-curvature="0" /></clipPath><linearGradient
       x1="0"
       y1="0"
       x2="1"
       y2="0"
       gradientUnits="userSpaceOnUse"
       gradientTransform="matrix(0,127.23633,127.23633,0,577.5918,271.25)"
       spreadMethod="pad"
       id="linearGradient104"><stop
         style="stop-opacity:1;stop-color:#3e3d40"
         offset="0"
         id="stop106" /><stop
         style="stop-opacity:1;stop-color:#87888a"
         offset="1"
         id="stop108" /></linearGradient><clipPath
       clipPathUnits="userSpaceOnUse"
       id="clipPath116"><path
         d="M 0,612 H 792 V 0 H 0 Z"
         id="path118"
         inkscape:connector-curvature="0" /></clipPath><clipPath
       clipPathUnits="userSpaceOnUse"
       id="clipPath124"><path
         d="M 587.071,339.188 H 619.71 V 272.955 H 587.071 Z"
         id="path126"
         inkscape:connector-curvature="0" /></clipPath><clipPath
       clipPathUnits="userSpaceOnUse"
       id="clipPath168"><path
         d="m 299.51,240.295 -4.809,-0.932 -4.185,-1.534 -3.437,-2.135 -2.998,-2.63 -2.374,-3.122 -1.686,-3.67 -0.563,-2.137 -0.312,-2.355 v -44.041 l 0.312,-2.355 0.875,-1.862 1.687,-1.151 2.373,-0.547 2.062,0.766 1.249,1.589 0.875,2.355 0.125,45.903 0.624,2.136 1.936,3.397 1.5,1.314 3.747,1.972 2.812,0.493 h 2.56 l 2.437,-0.383 3.873,-1.698 1.499,-1.315 2.249,-3.286 0.562,-1.972 0.313,-2.356 V 178.78 l 0.624,-4.218 1.186,-1.533 1.812,-1.096 1,-0.109 1.499,0.273 1.686,1.15 1.187,1.589 0.438,2.246 -0.125,46.56 -0.5,2.246 -1.624,3.671 -3.748,4.546 -3.123,2.41 -3.749,1.917 -2.124,0.822 -5.372,1.041 z m 236.129,-1.041 -3.747,-1.425 -4.497,-3.012 -2.562,-2.465 -2.061,-2.793 -1.999,-5.369 -0.125,-2.191 0.437,-1.972 1.063,-1.314 1.623,-0.932 2.436,-0.274 1.749,0.931 1.25,1.205 0.687,1.698 0.937,3.89 1.937,2.903 2.872,2.246 3.874,1.15 2.373,0.274 2.562,-0.11 1.936,-0.547 3.311,-1.698 1.499,-1.205 1.936,-2.849 0.563,-1.697 v -11.394 l -0.874,-1.589 -2.124,-0.493 -10.433,-0.165 -2.248,-0.273 -4.061,-1.151 -3.435,-1.588 -2.998,-2.082 -2.562,-2.52 -2.061,-2.738 -0.875,-1.534 -1.249,-3.67 v -6.683 l 1.999,-5.368 3.248,-4.054 5.872,-4.217 5.934,-1.808 2.561,-0.547 4.498,0.273 4.309,0.932 5.123,2.464 4.185,3.396 3.874,5.917 1.062,3.779 v 34.948 l -1.187,3.67 -1.687,3.177 -3.249,4.054 -4.496,3.012 -3.625,1.534 -4.185,1.095 -5.184,0.11 z m 4.623,-58.94 -2.561,0.547 -3.748,1.972 -2.686,3.013 -0.749,1.972 -0.438,2.356 0.563,4.71 0.937,1.699 1.312,1.588 1.498,1.26 1.812,1.205 4.811,1.15 h 8.931 l 2.75,-0.383 0.999,-1.534 0.187,-10.517 -0.625,-2.191 -0.875,-1.863 -1.186,-1.533 -3.436,-2.356 -2.124,-0.821 -2.561,-0.384 z m -132.449,59.871 -4.935,-1.205 -2.999,-1.151 -3.748,-2.355 -2.248,-1.862 -4.061,-5.917 -1.187,-4.545 v -46.725 l 0.313,-1.589 0.749,-1.15 1.187,-0.932 2.061,-0.93 1.062,0.109 2.687,1.479 0.75,1.15 0.624,3.287 0.125,45.026 0.313,1.589 1.373,2.574 1.937,1.972 2.498,1.589 3.186,1.04 3.998,0.165 3.311,-0.931 2.686,-1.314 1.187,-0.932 1.811,-2.082 1.811,-5.915 1.625,-2.356 1.499,-0.658 1.812,-0.273 1.623,0.548 1.188,0.767 0.936,1.205 0.438,1.424 v 1.863 l -0.75,3.122 -1.187,2.738 -2.373,3.451 -1.999,2.082 -3.561,2.52 -4.373,1.917 -5.059,1.205 z m -56.116,0 -2.061,-0.384 -6.122,-1.698 -4.623,-2.902 -2.748,-2.357 -2.935,-4.436 -1.375,-3.561 -0.437,-4.327 0.312,-32.318 1.062,-3.78 0.687,-1.753 3.311,-4.163 2.561,-2.355 3.123,-1.972 5.809,-1.972 2.562,-0.383 h 4.622 l 6.122,1.698 3.248,1.698 2.999,2.081 2.56,2.52 2.687,4.71 1.187,3.944 v 1.917 l -0.75,1.863 -1.187,1.151 -1.812,0.931 -2.061,-0.11 -1.811,-0.931 -1.062,-1.314 -0.75,-1.699 -0.249,-2.081 -0.626,-1.699 -0.874,-1.588 -1.187,-1.424 -2.998,-1.973 -1.811,-0.767 -2.375,-0.547 -2.124,-0.11 -2.373,0.22 -2.061,0.547 -3.311,1.808 -1.312,1.205 -1.811,3.013 -0.625,1.808 v 11.283 l 1.187,1.315 2.249,0.383 h 26.611 l 2.248,0.384 0.875,1.698 v 18.735 l -0.313,1.971 -1.186,3.67 -1.937,3.013 -2.374,2.629 -4.185,3.287 -5.56,2.191 -4.746,0.931 z m -8.932,-29.853 -1.499,1.314 -0.313,2.355 v 7.998 l 0.438,2.356 0.874,1.807 1.249,1.588 3.124,2.465 2.061,0.932 2.561,0.547 h 2.998 l 2.374,-0.547 2.061,-0.767 1.812,-1.041 1.623,-1.315 1.251,-1.588 0.874,-1.863 0.438,-2.191 -0.125,-10.462 -1.376,-1.479 -2.56,-0.384 h -15.179 z m -96.503,29.853 -2.062,-0.384 -6.122,-1.698 -4.622,-2.902 -2.749,-2.357 -2.936,-4.436 -1.374,-3.561 -0.438,-4.327 0.313,-32.318 1.062,-3.78 0.687,-1.753 3.31,-4.163 2.562,-2.355 3.123,-1.972 5.809,-1.972 2.562,-0.383 h 4.622 l 6.121,1.698 3.249,1.698 2.998,2.081 2.561,2.52 2.687,4.71 1.186,3.944 v 1.917 l -0.75,1.863 -1.186,1.151 -1.812,0.931 -2.061,-0.11 -1.811,-0.931 -1.062,-1.314 -0.75,-1.699 -0.25,-2.081 -0.625,-1.699 -0.875,-1.588 -1.186,-1.424 -2.998,-1.973 -1.811,-0.767 -2.375,-0.547 -2.124,-0.11 -2.374,0.22 -2.061,0.547 -3.311,1.808 -1.311,1.205 -1.812,3.013 -0.624,1.808 v 11.283 l 1.187,1.315 2.248,0.383 h 26.611 l 2.249,0.384 0.874,1.698 v 18.735 l -0.312,1.971 -1.187,3.67 -1.936,3.013 -2.374,2.629 -4.185,3.287 -5.56,2.191 -4.747,0.931 z m -8.934,-29.853 -1.499,1.314 -0.313,2.355 v 7.998 l 0.438,2.356 0.875,1.807 1.249,1.588 3.123,2.465 2.062,0.932 2.56,0.547 h 2.999 l 2.373,-0.547 2.062,-0.767 1.812,-1.041 1.624,-1.315 1.25,-1.588 0.874,-1.863 0.437,-2.191 -0.125,-10.462 -1.374,-1.479 -2.562,-0.384 h -15.179 z m 266.512,28.729 -1.749,-0.931 -1.25,-1.425 -0.687,-1.917 v -59.165 l 0.501,-2.081 0.936,-1.644 1.748,-0.985 1.251,-0.274 1.312,0.164 1.873,0.822 1.25,1.369 0.811,2.356 v 58.89 l -0.437,2.082 -1.124,1.534 -2.249,1.205 z M 460.897,239 l -6.059,-1.205 -5.122,-2.027 -3.997,-2.848 -1.687,-1.698 -2.686,-3.834 -0.937,-2.247 -0.438,-3.122 0.125,-14.296 0.625,-2.41 2.186,-4.328 3.249,-3.341 4.06,-2.849 0.437,-0.822 -0.312,-1.588 -1.686,-4.656 v -2.739 l 0.749,-2.355 1.437,-1.808 1.999,-1.533 2.311,-1.206 2.811,-0.876 9.432,-1.424 2.499,-1.205 1.874,-1.37 1.562,-1.808 1.248,-3.122 v -1.917 l -0.624,-2.355 -1.25,-2.027 -1.686,-1.699 -2.186,-1.314 -2.499,-0.931 -3.436,-0.383 -3.56,0.273 -2.936,0.713 -2.186,1.205 -1.999,1.534 -1.249,1.917 -1.562,4.655 -1.499,1.808 -2.811,0.931 -2.937,-0.712 -1.561,-1.807 -0.5,-1.315 v -1.315 l 1.562,-4.765 2.937,-3.725 1.747,-1.644 2,-1.424 4.685,-2.301 5.684,-1.534 3.436,-0.273 3.561,0.273 5.746,1.534 4.81,2.301 2,1.424 3.248,3.452 2.373,4.162 0.625,2.52 v 2.904 l -0.625,2.465 -2.186,4.272 -3.248,3.342 -4.185,2.903 -4.998,2.027 -9.432,1.533 -1.562,1.808 0.624,2.52 1.688,1.643 2.31,1.095 6.372,1.096 4.998,2.026 2.311,1.315 3.685,3.068 2.686,3.834 1.562,4.766 v 14.845 l -0.625,2.519 -1.562,3.67 0.126,0.986 c 0.624,0.548 1.352,0.931 2.186,1.15 v 0 l 2.623,0.986 1.749,1.644 0.125,1.698 -0.437,0.821 -1.749,1.699 -2.749,0.821 z m -2.498,-36.919 -2.749,0.876 -1.249,0.657 -2.811,2.247 -1.249,1.971 -0.437,2.574 0.124,12.709 1.749,3.123 2.936,2.19 5.873,1.753 h 1.999 l 3.622,-0.328 3.873,-1.534 1.999,-1.424 1.561,-1.699 0.75,-2.41 v -14.078 l -1.687,-3.067 -2.935,-2.136 -1.25,-0.658 -2.935,-0.766 -3.561,-0.329 z"
         id="path170"
         inkscape:connector-curvature="0" /></clipPath><clipPath
       clipPathUnits="userSpaceOnUse"
       id="clipPath176"><path
         d="M -32767,32767 H 32767 V -32767 H -32767 Z"
         id="path178"
         inkscape:connector-curvature="0" /></clipPath><radialGradient
       fx="0"
       fy="0"
       cx="0"
       cy="0"
       r="1"
       gradientUnits="userSpaceOnUse"
       gradientTransform="matrix(-101.3335,-166.6665,-166.6665,101.3335,453.3335,286.6665)"
       spreadMethod="pad"
       id="radialGradient180"><stop
         style="stop-opacity:1;stop-color:#ffffff"
         offset="0"
         id="stop182" /><stop
         style="stop-opacity:0;stop-color:#ffffff"
         offset="0.644165"
         id="stop184" /><stop
         style="stop-opacity:0;stop-color:#ffffff"
         offset="1"
         id="stop186" /></radialGradient><mask
       maskUnits="userSpaceOnUse"
       x="0"
       y="0"
       width="1"
       height="1"
       id="mask188"><g
         id="g190"><g
           clip-path="url(#clipPath176)"
           id="g192"><g
             id="g194"><g
               id="g196"><path
                 d="M -32767,32767 H 32767 V -32767 H -32767 Z"
                 style="fill:url(#radialGradient180);stroke:none"
                 id="path198"
                 inkscape:connector-curvature="0" /></g></g></g></g></mask><radialGradient
       fx="0"
       fy="0"
       cx="0"
       cy="0"
       r="1"
       gradientUnits="userSpaceOnUse"
       gradientTransform="matrix(-101.3335,-166.6665,-166.6665,101.3335,453.3335,286.6665)"
       spreadMethod="pad"
       id="radialGradient204"><stop
         style="stop-opacity:1;stop-color:#d5e20f"
         offset="0"
         id="stop206" /><stop
         style="stop-opacity:1;stop-color:#d5e20f"
         offset="1"
         id="stop208" /></radialGradient><clipPath
       clipPathUnits="userSpaceOnUse"
       id="clipPath216"><path
         d="M 0,612 H 792 V 0 H 0 Z"
         id="path218"
         inkscape:connector-curvature="0" /></clipPath><clipPath
       clipPathUnits="userSpaceOnUse"
       id="clipPath228"><path
         d="M 390.229,383.984 C 378.628,372.944 372.83,359.66 372.83,344.133 v 0 -60.06 c 0,-6.547 1.777,-11.695 5.332,-15.437 v 0 c 3.742,-3.735 8.234,-5.607 13.472,-5.607 v 0 c 5.237,0 9.635,1.872 13.19,5.607 v 0 c 3.554,3.742 5.331,8.89 5.331,15.437 v 0 50.515 c 0,19.835 7.113,29.748 21.33,29.748 v 0 c 13.845,0 20.769,-9.913 20.769,-29.748 v 0 -50.515 c 0,-6.547 1.777,-11.695 5.332,-15.437 v 0 c 3.554,-3.735 7.952,-5.607 13.19,-5.607 v 0 c 5.237,0 9.635,1.872 13.189,5.607 v 0 c 3.742,3.742 5.614,8.89 5.614,15.437 v 0 50.515 c 0,19.647 6.83,29.47 20.486,29.47 v 0 c 8.797,0 14.967,-4.026 18.526,-12.067 v 0 c 1.495,-3.371 2.244,-9.168 2.244,-17.403 v 0 -50.515 c 0,-6.547 1.777,-11.695 5.332,-15.437 v 0 c 3.554,-3.735 7.951,-5.607 13.188,-5.607 v 0 c 5.243,0 9.636,1.872 13.19,5.607 v 0 c 3.743,3.742 5.615,8.89 5.615,15.437 v 0 57.811 c 0,16.277 -5.799,30.126 -17.4,41.538 v 0 c -11.601,11.413 -25.539,17.117 -41.816,17.117 v 0 c -13.845,0 -26.662,-5.048 -38.447,-15.155 v 0 c -12.911,10.291 -26.477,15.438 -40.695,15.438 v 0 c -14.782,0 -27.972,-5.614 -39.573,-16.838"
         id="path230"
         inkscape:connector-curvature="0" /></clipPath><clipPath
       clipPathUnits="userSpaceOnUse"
       id="clipPath236"><path
         d="M -32768,32767 H 32767 V -32767 H -32768 Z"
         id="path238"
         inkscape:connector-curvature="0" /></clipPath><linearGradient
       x1="0"
       y1="0"
       x2="1"
       y2="0"
       gradientUnits="userSpaceOnUse"
       gradientTransform="matrix(0,-137.79199,-137.79199,0,470.49512,400.82178)"
       spreadMethod="pad"
       id="linearGradient240"><stop
         style="stop-opacity:1;stop-color:#ffffff"
         offset="0"
         id="stop242" /><stop
         style="stop-opacity:0;stop-color:#ffffff"
         offset="1"
         id="stop244" /></linearGradient><mask
       maskUnits="userSpaceOnUse"
       x="0"
       y="0"
       width="1"
       height="1"
       id="mask246"><g
         id="g248"><g
           clip-path="url(#clipPath236)"
           id="g250"><g
             id="g252"><g
               id="g254"><path
                 d="M -32768,32767 H 32767 V -32767 H -32768 Z"
                 style="fill:url(#linearGradient240);stroke:none"
                 id="path256"
                 inkscape:connector-curvature="0" /></g></g></g></g></mask><linearGradient
       x1="0"
       y1="0"
       x2="1"
       y2="0"
       gradientUnits="userSpaceOnUse"
       gradientTransform="matrix(0,-137.79199,-137.79199,0,470.49512,400.82178)"
       spreadMethod="pad"
       id="linearGradient262"><stop
         style="stop-opacity:1;stop-color:#d5e20f"
         offset="0"
         id="stop264" /><stop
         style="stop-opacity:1;stop-color:#d5e20f"
         offset="1"
         id="stop266" /></linearGradient><clipPath
       clipPathUnits="userSpaceOnUse"
       id="clipPath274"><path
         d="M 0,612 H 792 V 0 H 0 Z"
         id="path276"
         inkscape:connector-curvature="0" /></clipPath><clipPath
       clipPathUnits="userSpaceOnUse"
       id="clipPath286"><path
         d="m 244.3,379.622 c -14.621,-13.12 -21.928,-30.835 -21.928,-53.141 v 0 c 0,-18.934 6.839,-35.052 20.525,-48.361 v 0 c 13.871,-13.124 30.457,-19.681 49.769,-19.681 v 0 c 19.117,0 35.425,6.651 48.923,19.96 v 0 c 13.682,13.308 20.525,29.432 20.525,48.36 v 0 c 0,22.121 -7.312,39.743 -21.932,52.863 v 0 c -12.936,11.622 -28.866,17.431 -47.8,17.431 v 0 c -18.933,0 -34.958,-5.809 -48.082,-17.431 m 19.875,-80.1 c -7.785,7.57 -11.674,16.737 -11.674,27.507 v 0 c 0,12.686 4.156,22.762 12.472,30.224 v 0 c 7.465,6.612 16.579,9.915 27.348,9.915 v 0 c 10.769,0 19.83,-3.303 27.188,-9.915 v 0 c 8.316,-7.462 12.474,-17.484 12.474,-30.066 v 0 c 0,-10.767 -3.893,-19.938 -11.674,-27.508 v 0 c -7.677,-7.569 -16.952,-11.351 -27.827,-11.351 v 0 c -10.984,0 -20.417,3.728 -28.307,11.194"
         id="path288"
         inkscape:connector-curvature="0" /></clipPath><clipPath
       clipPathUnits="userSpaceOnUse"
       id="clipPath294"><path
         d="M -32767,32767 H 32767 V -32767 H -32767 Z"
         id="path296"
         inkscape:connector-curvature="0" /></clipPath><radialGradient
       fx="0"
       fy="0"
       cx="0"
       cy="0"
       r="1"
       gradientUnits="userSpaceOnUse"
       gradientTransform="matrix(-137.89693,1.53e-5,1.53e-5,137.89693,360.91797,328.91504)"
       spreadMethod="pad"
       id="radialGradient298"><stop
         style="stop-opacity:0.8;stop-color:#ffffff"
         offset="0"
         id="stop300" /><stop
         style="stop-opacity:0;stop-color:#ffffff"
         offset="0.67485"
         id="stop302" /><stop
         style="stop-opacity:0;stop-color:#ffffff"
         offset="0.67485"
         id="stop304" /><stop
         style="stop-opacity:0;stop-color:#ffffff"
         offset="1"
         id="stop306" /></radialGradient><mask
       maskUnits="userSpaceOnUse"
       x="0"
       y="0"
       width="1"
       height="1"
       id="mask308"><g
         id="g310"><g
           clip-path="url(#clipPath294)"
           id="g312"><g
             id="g314"><g
               id="g316"><path
                 d="M -32767,32767 H 32767 V -32767 H -32767 Z"
                 style="fill:url(#radialGradient298);stroke:none"
                 id="path318"
                 inkscape:connector-curvature="0" /></g></g></g></g></mask><radialGradient
       fx="0"
       fy="0"
       cx="0"
       cy="0"
       r="1"
       gradientUnits="userSpaceOnUse"
       gradientTransform="matrix(-137.89693,1.53e-5,1.53e-5,137.89693,360.91797,328.91504)"
       spreadMethod="pad"
       id="radialGradient324"><stop
         style="stop-opacity:1;stop-color:#d5e20f"
         offset="0"
         id="stop326" /><stop
         style="stop-opacity:1;stop-color:#d5e20f"
         offset="0.67485"
         id="stop328" /><stop
         style="stop-opacity:1;stop-color:#d5e20f"
         offset="1"
         id="stop330" /></radialGradient><clipPath
       clipPathUnits="userSpaceOnUse"
       id="clipPath338"><path
         d="M 0,612 H 792 V 0 H 0 Z"
         id="path340"
         inkscape:connector-curvature="0" /></clipPath><clipPath
       clipPathUnits="userSpaceOnUse"
       id="clipPath346"><path
         d="M 396.959,451.829 H 628.825 V 329.409 H 396.959 Z"
         id="path348"
         inkscape:connector-curvature="0" /></clipPath><clipPath
       clipPathUnits="userSpaceOnUse"
       id="clipPath366"><path
         d="m 639.643,385.128 c -6.783,-5.897 -5.383,-16.601 4.325,-27.77 v 0 c 9.708,-11.168 17.747,-15.174 25.153,-10.996 v 0 c 7.828,4.417 7.311,19.375 -2.398,30.543 v 0 c -6.435,7.402 -13.255,11.195 -19.098,11.194 v 0 c -2.973,0 -5.694,-0.982 -7.982,-2.971"
         id="path368"
         inkscape:connector-curvature="0" /></clipPath><radialGradient
       fx="0"
       fy="0"
       cx="0"
       cy="0"
       r="1"
       gradientUnits="userSpaceOnUse"
       gradientTransform="matrix(-16.163086,-12.823731,-12.823731,16.163086,663.78809,375.05518)"
       spreadMethod="pad"
       id="radialGradient374"><stop
         style="stop-opacity:1;stop-color:#c6c7c8"
         offset="0"
         id="stop376" /><stop
         style="stop-opacity:1;stop-color:#707173"
         offset="1"
         id="stop378" /></radialGradient><clipPath
       clipPathUnits="userSpaceOnUse"
       id="clipPath386"><path
         d="M 0,612 H 792 V 0 H 0 Z"
         id="path388"
         inkscape:connector-curvature="0" /></clipPath><clipPath
       clipPathUnits="userSpaceOnUse"
       id="clipPath418"><path
         d="M 396.954,401.161 H 628.825 V 325.292 H 396.954 Z"
         id="path420"
         inkscape:connector-curvature="0" /></clipPath><clipPath
       clipPathUnits="userSpaceOnUse"
       id="clipPath434"><path
         d="m 648.798,384.8 h 10.62 v -8.002 h -10.62 z"
         id="path436"
         inkscape:connector-curvature="0" /></clipPath><radialGradient
       inkscape:collect="always"
       xlink:href="#radialGradient32"
       id="radialGradient4364"
       gradientUnits="userSpaceOnUse"
       gradientTransform="matrix(-293.00171,0,0,161.15094,474,329)"
       spreadMethod="pad"
       cx="0"
       cy="0"
       fx="0"
       fy="0"
       r="1" /></defs><sodipodi:namedview
     pagecolor="#ffffff"
     bordercolor="#666666"
     borderopacity="1"
     objecttolerance="10"
     gridtolerance="10"
     guidetolerance="10"
     inkscape:pageopacity="0"
     inkscape:pageshadow="2"
     inkscape:window-width="1920"
     inkscape:window-height="1015"
     id="namedview4"
     showgrid="false"
     inkscape:zoom="0.87256051"
     inkscape:cx="622.87944"
     inkscape:cy="240.09796"
     inkscape:window-x="0"
     inkscape:window-y="0"
     inkscape:window-maximized="1"
     inkscape:current-layer="g10"
     fit-margin-top="0"
     fit-margin-left="0"
     fit-margin-right="0"
     fit-margin-bottom="0"
     inkscape:showpageshadow="0"
     inkscape:pagecheckerboard="0"
     inkscape:deskcolor="#d1d1d1" /><g
     id="g10"
     inkscape:groupmode="layer"
     inkscape:label="logos-somenergia-t"
     transform="matrix(1.25,0,0,-1.25,-52.984836,663.10253)"><g
       id="g560"
       transform="translate(33.832319,7.90652)"><g
         id="g20"
         transform="translate(-360.5739)"><g
           id="g22" /></g><g
         id="g56"
         transform="translate(-360.5739)"><g
           id="g58" /><g
           id="g64"><g
             clip-path="url(#clipPath60)"
             id="g66"
             style="opacity:0.75"><g
               transform="translate(397.3467,454.4795)"
               id="g68"><path
                 d="m 0,0 c 0,0 18.881,25.496 130.293,-16.648 118.129,-44.685 82.052,-81.603 80.059,-83.685 -1.992,-2.081 -45.316,-29.586 -152.818,-2.782 C -58.637,-74.149 0,0 0,0"
                 style="fill:#e6e6e6;fill-opacity:1;fill-rule:evenodd;stroke:none"
                 id="path70"
                 inkscape:connector-curvature="0" /></g></g></g></g><g
         id="g72"
         transform="translate(-360.5739)"><g
           id="g74"
           clip-path="url(#clipPath76)"><g
             id="g80"><g
               id="g82"><path
                 d="m 537.823,378.559 c -9.405,-11.32 12.558,-16.03 13.865,-106.588 v 0 c 7.107,-1.622 15.922,0 26.852,0 v 0 c 16.548,0 37.545,7.375 40.492,25.64 v 0 c 7.084,-5.476 57.654,2.759 57.654,38.442 v 0 c 0,23.15 -20.891,49.809 -46.063,53.099 v 0 c -8.445,1.104 -17.5,0.772 -22.932,-3.444 v 0 c -4.899,6.396 -18.469,12.779 -29.151,12.779 v 0 c -16.053,0 -30.524,-7.661 -40.717,-19.928"
                 style="fill:url(#linearGradient84);stroke:none"
                 id="path90"
                 inkscape:connector-curvature="0" /></g></g></g></g><g
         id="g92"
         transform="translate(-360.5739)"><g
           id="g94"
           clip-path="url(#clipPath96)"><g
             id="g100"><g
               id="g102"><path
                 d="m 537.823,378.559 c -9.405,-11.32 12.558,-16.03 13.865,-106.588 v 0 c 7.107,-1.622 15.922,0 26.852,0 v 0 c 16.548,0 36.044,6.612 40.492,25.64 v 0 C 622.52,312.535 611.167,336.25 610,349 v 0 c -2.056,22.467 -1,21.334 -2.309,36.708 v 0 c -4.899,6.396 -18.469,12.779 -29.151,12.779 v 0 c -16.053,0 -30.524,-7.661 -40.717,-19.928"
                 style="fill:url(#linearGradient104);stroke:none"
                 id="path110"
                 inkscape:connector-curvature="0" /></g></g></g></g><g
         id="g112"
         transform="translate(-360.5739)" /><g
         id="g212"
         transform="translate(-360.5739)"><g
           id="g214"
           clip-path="url(#clipPath216)"><g
             id="g220"
             transform="translate(489.5791,334.5874)"><path
               d="m 0,0 v -50.514 c 0,-6.548 -1.872,-11.695 -5.614,-15.438 -3.554,-3.735 -7.952,-5.606 -13.19,-5.606 -5.237,0 -9.635,1.871 -13.189,5.606 -3.555,3.743 -5.332,8.89 -5.332,15.438 V 0 c 0,19.835 -6.925,29.749 -20.769,29.749 -14.218,0 -21.33,-9.914 -21.33,-29.749 v -50.514 c 0,-6.548 -1.778,-11.695 -5.332,-15.438 -3.554,-3.735 -7.952,-5.606 -13.189,-5.606 -5.238,0 -9.73,1.871 -13.472,5.606 -3.555,3.743 -5.332,8.89 -5.332,15.438 V 9.545 c 0,15.528 5.798,28.811 17.399,39.851 11.601,11.225 24.79,16.838 39.573,16.838 14.217,0 27.784,-5.147 40.695,-15.437 11.785,10.106 24.602,15.155 38.446,15.155 16.278,0 30.217,-5.704 41.818,-17.117 11.6,-11.412 17.399,-25.261 17.399,-41.538 v -57.811 c 0,-6.548 -1.872,-11.695 -5.615,-15.438 -3.554,-3.735 -7.947,-5.606 -13.189,-5.606 -5.237,0 -9.635,1.871 -13.19,5.606 -3.554,3.743 -5.331,8.89 -5.331,15.438 V 0 c 0,8.235 -0.75,14.033 -2.244,17.403 -3.559,8.042 -9.73,12.068 -18.526,12.068 C 6.83,29.471 0,19.647 0,0"
               style="fill:#8ed300;fill-opacity:1;fill-rule:evenodd;stroke:none"
               id="path222"
               inkscape:connector-curvature="0" /></g></g></g><g
         id="g224"
         transform="translate(-360.5739)"><g
           id="g226"
           clip-path="url(#clipPath228)"><g
             id="g232"><g
               id="g234" /><g
               id="g258"
               mask="url(#mask246)"><g
                 id="g260"><path
                   d="M 390.229,383.984 C 378.628,372.944 372.83,359.66 372.83,344.133 v 0 -60.06 c 0,-6.547 1.777,-11.695 5.332,-15.437 v 0 c 3.742,-3.735 8.234,-5.607 13.472,-5.607 v 0 c 5.237,0 9.635,1.872 13.19,5.607 v 0 c 3.554,3.742 5.331,8.89 5.331,15.437 v 0 50.515 c 0,19.835 7.113,29.748 21.33,29.748 v 0 c 13.845,0 20.769,-9.913 20.769,-29.748 v 0 -50.515 c 0,-6.547 1.777,-11.695 5.332,-15.437 v 0 c 3.554,-3.735 7.952,-5.607 13.19,-5.607 v 0 c 5.237,0 9.635,1.872 13.189,5.607 v 0 c 3.742,3.742 5.614,8.89 5.614,15.437 v 0 50.515 c 0,19.647 6.83,29.47 20.486,29.47 v 0 c 8.797,0 14.967,-4.026 18.526,-12.067 v 0 c 1.495,-3.371 2.244,-9.168 2.244,-17.403 v 0 -50.515 c 0,-6.547 1.777,-11.695 5.332,-15.437 v 0 c 3.554,-3.735 7.951,-5.607 13.188,-5.607 v 0 c 5.243,0 9.636,1.872 13.19,5.607 v 0 c 3.743,3.742 5.615,8.89 5.615,15.437 v 0 57.811 c 0,16.277 -5.799,30.126 -17.4,41.538 v 0 c -11.601,11.413 -25.539,17.117 -41.816,17.117 v 0 c -13.845,0 -26.662,-5.048 -38.447,-15.155 v 0 c -12.911,10.291 -26.477,15.438 -40.695,15.438 v 0 c -14.782,0 -27.972,-5.614 -39.573,-16.838"
                   style="fill:url(#linearGradient262);stroke:none"
                   id="path268"
                   inkscape:connector-curvature="0" /></g></g></g></g></g><g
         id="g342"
         transform="translate(-360.5739)"><g
           id="g344" /><g
           id="g350"><g
             clip-path="url(#clipPath346)"
             id="g352"
             style="opacity:0.800003"><g
               transform="translate(411.7578,444.1855)"
               id="g354"><path
                 d="m 0,0 c 0,0 18.88,25.497 130.292,-16.648 118.13,-44.685 82.052,-81.602 80.06,-83.684 -1.992,-2.082 -45.316,-29.587 -152.818,-2.783 C -58.637,-74.149 0,0 0,0"
                 style="fill:#ffffff;fill-opacity:1;fill-rule:evenodd;stroke:none"
                 id="path356"
                 inkscape:connector-curvature="0" /></g></g></g></g><g
         id="g358"
         transform="translate(281.534,356.3667)"><path
           d="m 0,0 c -9.708,11.168 -11.108,21.873 -4.325,27.769 6.783,5.897 17.371,2.945 27.08,-8.223 C 32.463,8.377 32.981,-6.58 25.153,-10.997 17.747,-15.175 9.708,-11.168 0,0"
           style="fill:#4c4c4c;fill-opacity:1;fill-rule:evenodd;stroke:none"
           id="path360"
           inkscape:connector-curvature="0" /></g><g
         id="g362"
         transform="translate(-360.5739)"><g
           id="g364"
           clip-path="url(#clipPath366)"><g
             id="g370"><g
               id="g372"><path
                 d="m 639.643,385.128 c -6.783,-5.897 -5.383,-16.601 4.325,-27.77 v 0 c 9.708,-11.168 17.747,-15.174 25.153,-10.996 v 0 c 7.828,4.417 7.311,19.375 -2.398,30.543 v 0 c -6.435,7.402 -13.255,11.195 -19.098,11.194 v 0 c -2.973,0 -5.694,-0.982 -7.982,-2.971"
                 style="fill:url(#radialGradient374);stroke:none"
                 id="path380"
                 inkscape:connector-curvature="0" /></g></g></g></g><g
         id="g390"
         transform="translate(269.6268,389.0596)"><path
           d="M 0,0 C 0,0 6.053,46.445 51.18,35.575"
           style="fill:none;stroke:#666666;stroke-width:1;stroke-linecap:butt;stroke-linejoin:miter;stroke-miterlimit:3.864;stroke-dasharray:none;stroke-opacity:1"
           id="path392"
           inkscape:connector-curvature="0" /></g><g
         id="g394"
         transform="translate(269.6268,389.0596)"><path
           d="M 0,0 C 0,0 6.053,46.445 51.18,35.575"
           style="fill:none;stroke:#666666;stroke-width:2.058;stroke-linecap:butt;stroke-linejoin:miter;stroke-miterlimit:3.864;stroke-dasharray:none;stroke-opacity:1"
           id="path396"
           inkscape:connector-curvature="0" /></g><g
         id="g398"
         transform="translate(265.7972,385.2305)"><path
           d="M 0,0 C 0,0 -4.612,48.421 40.845,29.646"
           style="fill:none;stroke:#666666;stroke-width:2.058;stroke-linecap:butt;stroke-linejoin:miter;stroke-miterlimit:3.864;stroke-dasharray:none;stroke-opacity:1"
           id="path400"
           inkscape:connector-curvature="0" /></g><g
         id="g402"
         transform="translate(265.7972,385.2305)"><path
           d="M 0,0 C 0,0 -4.612,48.421 40.845,29.646"
           style="fill:none;stroke:#666666;stroke-width:2.058;stroke-linecap:butt;stroke-linejoin:miter;stroke-miterlimit:3.864;stroke-dasharray:none;stroke-opacity:1"
           id="path404"
           inkscape:connector-curvature="0" /></g><g
         id="g406"
         transform="translate(319.199,424.6665)"><path
           d="M 0,0 C 0,1.562 1.266,2.828 2.828,2.828 4.39,2.828 5.656,1.562 5.656,0 5.656,-1.562 4.39,-2.828 2.828,-2.828 1.266,-2.828 0,-1.562 0,0"
           style="fill:#666666;fill-opacity:1;fill-rule:evenodd;stroke:none"
           id="path408"
           inkscape:connector-curvature="0" /></g><g
         id="g410"
         transform="translate(304.3919,414.7544)"><path
           d="M 0,0 C 0,1.848 1.498,3.346 3.346,3.346 5.194,3.346 6.692,1.848 6.692,0 6.692,-1.848 5.194,-3.346 3.346,-3.346 1.498,-3.346 0,-1.848 0,0"
           style="fill:#666666;fill-opacity:1;fill-rule:evenodd;stroke:none"
           id="path412"
           inkscape:connector-curvature="0" /></g><g
         id="g414"
         transform="translate(-360.5739)"><g
           id="g416" /><g
           id="g422"><g
             clip-path="url(#clipPath418)"
             id="g424"
             style="opacity:0.100006"><g
               transform="translate(628.7827,357.8311)"
               id="g426"><path
                 d="m 0,0 c 0.622,-10.602 -5.86,-17.246 -6.673,-18.095 -1.992,-2.082 -45.316,-29.587 -152.818,-2.783 -59.655,14.875 -73.279,41.663 -72.288,64.208 0.833,-38.126 46.933,-56.438 98.231,-65.725 70.765,-12.811 109.107,-2.706 126.27,7.69 C -1.02,-8.679 0,0 0,0"
                 style="fill:#000000;fill-opacity:1;fill-rule:evenodd;stroke:none"
                 id="path428"
                 inkscape:connector-curvature="0" /></g></g></g></g><g
         id="g430"
         transform="translate(-360.5739)"><g
           id="g432" /><g
           id="g438"><g
             clip-path="url(#clipPath434)"
             id="g440"
             style="opacity:0.149994"><g
               transform="translate(650.7334,384.7642)"
               id="g442"><path
                 d="m 0,0 c 0,0 4.964,-0.529 8.112,-5.761 3.147,-5.231 -7.608,0.12 -9.362,2.956 C -3.335,0.569 0,0 0,0"
                 style="fill:#ffffff;fill-opacity:1;fill-rule:evenodd;stroke:none"
                 id="path444"
                 inkscape:connector-curvature="0" /></g></g></g></g></g></g></svg>
