<?xml version="1.0" encoding="UTF-8" standalone="no" ?>
<!DOCTYPE svg PUBLIC "-//W3C//DTD SVG 1.1//EN" "http://www.w3.org/Graphics/SVG/1.1/DTD/svg11.dtd">
<svg xmlns="http://www.w3.org/2000/svg" xmlns:xlink="http://www.w3.org/1999/xlink" version="1.1" width="450" height="450" viewBox="0 0 450 450" xml:space="preserve">
<desc>Created with Fabric.js 3.6.6</desc>
<defs>
</defs>
<rect x="0" y="0" width="100%" height="100%" fill="rgba(51, 46, 46, 0)"></rect>
<g transform="matrix(1 0 0 1 -51.56 142.13)"  >
<line style="stroke: rgb(0,0,0); stroke-width: 2; stroke-dasharray: none; stroke-linecap: butt; stroke-dashoffset: 0; stroke-linejoin: miter; stroke-miterlimit: 4; fill: rgb(0,0,0); fill-rule: nonzero; opacity: 1;"  x1="0" y1="0" x2="0" y2="0" />
</g>
<g transform="matrix(1 0 0 1 67.44 257.13)"  >
<line style="stroke: rgb(0,0,0); stroke-width: 2; stroke-dasharray: none; stroke-linecap: butt; stroke-dashoffset: 0; stroke-linejoin: miter; stroke-miterlimit: 4; fill: rgb(0,0,0); fill-rule: nonzero; opacity: 1;"  x1="0" y1="0" x2="0" y2="0" />
</g>
<g transform="matrix(1 0 0 1 68.44 213.13)"  >
<line style="stroke: rgb(0,0,0); stroke-width: 2; stroke-dasharray: none; stroke-linecap: butt; stroke-dashoffset: 0; stroke-linejoin: miter; stroke-miterlimit: 4; fill: rgb(0,0,0); fill-rule: nonzero; opacity: 1;"  x1="0" y1="0" x2="0" y2="0" />
</g>
<g transform="matrix(1 0 0 1 6.44 332.13)"  >
<line style="stroke: rgb(0,0,0); stroke-width: 2; stroke-dasharray: none; stroke-linecap: butt; stroke-dashoffset: 0; stroke-linejoin: miter; stroke-miterlimit: 4; fill: rgb(0,0,0); fill-rule: nonzero; opacity: 1;"  x1="0" y1="0" x2="0" y2="0" />
</g>
<g transform="matrix(1 0 0 1 230.44 225.13)"  >
<line style="stroke: rgb(0,0,0); stroke-width: 2; stroke-dasharray: none; stroke-linecap: butt; stroke-dashoffset: 0; stroke-linejoin: miter; stroke-miterlimit: 4; fill: rgb(0,0,0); fill-rule: nonzero; opacity: 1;"  x1="0" y1="0" x2="0" y2="0" />
</g>
<g transform="matrix(2.53 0 0 0.93 130.93 216.03)"  >
<polygon style="stroke: rgb(0,0,0); stroke-width: 3; stroke-dasharray: none; stroke-linecap: butt; stroke-dashoffset: 0; stroke-linejoin: miter; stroke-miterlimit: 4; fill: rgb(255,0,25); fill-rule: nonzero; opacity: 1;"  points="-25,-50 -50,50 25,50 50,-50 " />
</g>
<g transform="matrix(1 0 0 1 131.44 221.13)"  >
<line style="stroke: rgb(0,0,0); stroke-width: 2; stroke-dasharray: none; stroke-linecap: butt; stroke-dashoffset: 0; stroke-linejoin: miter; stroke-miterlimit: 4; fill: rgb(0,0,0); fill-rule: nonzero; opacity: 1;"  x1="0" y1="0" x2="0" y2="0" />
</g>
<g transform="matrix(1 0 0 1 136.44 218.13)"  >
<line style="stroke: rgb(0,0,0); stroke-width: 2; stroke-dasharray: none; stroke-linecap: butt; stroke-dashoffset: 0; stroke-linejoin: miter; stroke-miterlimit: 4; fill: rgb(0,0,0); fill-rule: nonzero; opacity: 1;"  x1="0" y1="0" x2="0" y2="0" />
</g>
<g transform="matrix(1.57 0 0 0.56 128.5 219.97)"  >
<polygon style="stroke: rgb(0,0,0); stroke-width: 3; stroke-dasharray: none; stroke-linecap: butt; stroke-dashoffset: 0; stroke-linejoin: miter; stroke-miterlimit: 4; fill: rgb(71,73,70); fill-opacity: 0.8; fill-rule: nonzero; opacity: 1;"  points="-25,-50 -50,50 25,50 50,-50 " />
</g>
<g transform="matrix(1.68 0 0 1 100.16 313.43)"  >
<polygon style="stroke: rgb(0,0,0); stroke-width: 3; stroke-dasharray: none; stroke-linecap: butt; stroke-dashoffset: 0; stroke-linejoin: miter; stroke-miterlimit: 4; fill: rgb(255,127,0); fill-opacity: 0.86; fill-rule: nonzero; opacity: 1;"  points="-50,-50 -50,50 50,50 50,-50 " />
</g>
<g transform="matrix(1 0 0 1 371.44 286.13)"  >
<line style="stroke: rgb(0,0,0); stroke-width: 2; stroke-dasharray: none; stroke-linecap: butt; stroke-dashoffset: 0; stroke-linejoin: miter; stroke-miterlimit: 4; fill: rgb(0,0,0); fill-rule: nonzero; opacity: 1;"  x1="0" y1="0" x2="0" y2="0" />
</g>
<g transform="matrix(1 0 0 1 280.44 314.13)"  >
<line style="stroke: rgb(0,0,0); stroke-width: 2; stroke-dasharray: none; stroke-linecap: butt; stroke-dashoffset: 0; stroke-linejoin: miter; stroke-miterlimit: 4; fill: rgb(0,0,0); fill-rule: nonzero; opacity: 1;"  x1="0" y1="0" x2="0" y2="0" />
</g>
<g transform="matrix(1 0 0 1 262.44 229.13)"  >
<line style="stroke: rgb(0,0,0); stroke-width: 2; stroke-dasharray: none; stroke-linecap: butt; stroke-dashoffset: 0; stroke-linejoin: miter; stroke-miterlimit: 4; fill: rgb(0,0,0); fill-rule: nonzero; opacity: 1;"  x1="0" y1="0" x2="0" y2="0" />
</g>
<g transform="matrix(0.89 0 0 0.89 294.14 117.94)"  >
<line style="stroke: rgb(0,0,0); stroke-width: 3; stroke-dasharray: ; stroke-linecap: butt; stroke-dashoffset: 0; stroke-linejoin: miter; stroke-miterlimit: 4; fill: rgb(0,0,0); fill-rule: nonzero; opacity: 1;"  x1="-41.5" y1="62.5" x2="41.5" y2="-62.5" />
</g>
<g transform="matrix(1 0 0 1 286.44 125.13)"  >
<line style="stroke: rgb(0,0,0); stroke-width: 2; stroke-dasharray: none; stroke-linecap: butt; stroke-dashoffset: 0; stroke-linejoin: miter; stroke-miterlimit: 4; fill: rgb(0,0,0); fill-rule: nonzero; opacity: 1;"  x1="0" y1="0" x2="0" y2="0" />
</g>
<g transform="matrix(1 0 0 1 273.44 149.13)"  >
<line style="stroke: rgb(0,0,0); stroke-width: 2; stroke-dasharray: none; stroke-linecap: butt; stroke-dashoffset: 0; stroke-linejoin: miter; stroke-miterlimit: 4; fill: rgb(0,0,0); fill-rule: nonzero; opacity: 1;"  x1="0" y1="0" x2="0" y2="0" />
</g>
<g transform="matrix(1 0 0 1 359.43 193.12)"  >
<path style="stroke: rgb(0,0,0); stroke-opacity: 0; stroke-width: 5; stroke-dasharray: none; stroke-linecap: round; stroke-dashoffset: 0; stroke-linejoin: round; stroke-miterlimit: 10; fill: none; fill-rule: nonzero; opacity: 1;"  transform=" translate(-443.8, -129.2)" d="M 434.7950030517578 117.19499694824219 Q 434.8000030517578 117.19999694824219 434.8000030517578 117.69999694824219 Q 434.8000030517578 118.19999694824219 435.3000030517578 118.69999694824219 Q 435.8000030517578 119.19999694824219 435.8000030517578 119.69999694824219 Q 435.8000030517578 120.19999694824219 436.8000030517578 120.69999694824219 Q 437.8000030517578 121.19999694824219 438.3000030517578 122.19999694824219 Q 438.8000030517578 123.19999694824219 440.8000030517578 124.69999694824219 Q 442.8000030517578 126.19999694824219 443.8000030517578 127.69999694824219 Q 444.8000030517578 129.1999969482422 446.3000030517578 131.1999969482422 Q 447.8000030517578 133.1999969482422 448.8000030517578 135.1999969482422 Q 449.8000030517578 137.1999969482422 450.3000030517578 138.6999969482422 Q 450.8000030517578 140.1999969482422 451.3000030517578 140.6999969482422 Q 451.8000030517578 141.1999969482422 452.3000030517578 141.1999969482422 Q 452.8000030517578 141.1999969482422 452.8000030517578 140.6999969482422 Q 452.8000030517578 140.1999969482422 452.3000030517578 139.6999969482422 Q 451.8000030517578 139.1999969482422 451.3000030517578 137.6999969482422 Q 450.8000030517578 136.1999969482422 449.8000030517578 134.6999969482422 Q 448.8000030517578 133.1999969482422 448.3000030517578 132.1999969482422 L 447.7950030517578 131.1949969482422" stroke-linecap="round" />
</g>
<g transform="matrix(1 0 0 1 359.44 199.13)"  >
<path style="stroke: rgb(0,0,0); stroke-opacity: 0; stroke-width: 5; stroke-dasharray: none; stroke-linecap: round; stroke-dashoffset: 0; stroke-linejoin: round; stroke-miterlimit: 10; fill: none; fill-rule: nonzero; opacity: 1;"  transform=" translate(-443.8, -135.2)" d="M 443.7950030517578 135.1999969482422 L 443.8050030517578 135.1999969482422" stroke-linecap="round" />
</g>
<g transform="matrix(1 0 0 1 363.43 191.13)"  >
<path style="stroke: rgb(0,0,0); stroke-opacity: 0; stroke-width: 5; stroke-dasharray: none; stroke-linecap: round; stroke-dashoffset: 0; stroke-linejoin: round; stroke-miterlimit: 10; fill: none; fill-rule: nonzero; opacity: 1;"  transform=" translate(-447.8, -127.2)" d="M 454.8000030517578 120.19499694824219 Q 454.8000030517578 120.19999694824219 455.3000030517578 120.19999694824219 Q 455.8000030517578 120.19999694824219 455.8000030517578 120.69999694824219 Q 455.8000030517578 121.19999694824219 455.3000030517578 121.69999694824219 Q 454.8000030517578 122.19999694824219 453.8000030517578 123.69999694824219 Q 452.8000030517578 125.19999694824219 450.8000030517578 127.19999694824219 Q 448.8000030517578 129.1999969482422 447.3000030517578 130.1999969482422 Q 445.8000030517578 131.1999969482422 444.3000030517578 132.1999969482422 Q 442.8000030517578 133.1999969482422 441.3000030517578 133.6999969482422 L 439.7950030517578 134.20499694824218" stroke-linecap="round" />
</g>
<g transform="matrix(1 0 0 1 356.83 211.66)"  >
<path style="stroke: rgb(247,245,245); stroke-width: 5; stroke-dasharray: none; stroke-linecap: round; stroke-dashoffset: 0; stroke-linejoin: round; stroke-miterlimit: 10; fill: none; fill-rule: nonzero; opacity: 1;"  transform=" translate(-441.2, -147.73)" d="M 441.19499980926514 147.73333358764648 L 441.20499980926513 147.73333358764648" stroke-linecap="round" />
</g>
<g transform="matrix(1 0 0 1 349.5 209.66)"  >
<path style="stroke: rgb(247,245,245); stroke-width: 5; stroke-dasharray: none; stroke-linecap: round; stroke-dashoffset: 0; stroke-linejoin: round; stroke-miterlimit: 10; fill: none; fill-rule: nonzero; opacity: 1;"  transform=" translate(-433.87, -145.73)" d="M 433.86166647593177 145.73333358764648 L 433.87166647593176 145.73333358764648" stroke-linecap="round" />
</g>
<g transform="matrix(1 0 0 1 353.17 204.33)"  >
<path style="stroke: rgb(247,245,245); stroke-width: 5; stroke-dasharray: none; stroke-linecap: round; stroke-dashoffset: 0; stroke-linejoin: round; stroke-miterlimit: 10; fill: none; fill-rule: nonzero; opacity: 1;"  transform=" translate(-437.53, -140.4)" d="M 436.52833314259846 139.0616669209798 Q 436.53333314259845 139.0666669209798 437.19999980926514 139.0666669209798 Q 437.86666647593177 139.0666669209798 438.19999980926514 139.40000025431314 Q 438.53333314259845 139.73333358764648 438.53333314259845 140.40000025431314 Q 438.53333314259845 141.0666669209798 438.53333314259845 141.40000025431314 L 438.53333314259845 141.73833358764648" stroke-linecap="round" />
</g>
<g transform="matrix(1 0 0 1 327.17 84.72)"  >
<path style="stroke: rgb(247,245,245); stroke-width: 5; stroke-dasharray: none; stroke-linecap: round; stroke-dashoffset: 0; stroke-linejoin: round; stroke-miterlimit: 10; fill: none; fill-rule: nonzero; opacity: 1;"  transform=" translate(-411.53, -20.8)" d="M 405.19499980926514 19.466664632161457 Q 405.19999980926514 19.466664632161457 405.53333314259845 19.466664632161457 Q 405.86666647593177 19.466664632161457 406.19999980926514 19.466664632161457 Q 406.53333314259845 19.466664632161457 406.86666647593177 19.466664632161457 Q 407.19999980926514 19.466664632161457 407.53333314259845 19.466664632161457 Q 407.86666647593177 19.466664632161457 408.19999980926514 19.466664632161457 Q 408.53333314259845 19.466664632161457 408.53333314259845 19.79999796549479 Q 408.53333314259845 20.133331298828125 408.86666647593177 20.133331298828125 Q 409.19999980926514 20.133331298828125 409.53333314259845 20.133331298828125 Q 409.86666647593177 20.133331298828125 409.86666647593177 20.466664632161457 Q 409.86666647593177 20.79999796549479 410.19999980926514 20.79999796549479 Q 410.53333314259845 20.79999796549479 410.86666647593177 20.79999796549479 Q 411.19999980926514 20.79999796549479 411.53333314259845 20.79999796549479 Q 411.86666647593177 20.79999796549479 411.86666647593177 21.133331298828125 Q 411.86666647593177 21.466664632161457 411.86666647593177 21.79999796549479 Q 411.86666647593177 22.133331298828125 412.19999980926514 22.133331298828125 Q 412.53333314259845 22.133331298828125 412.86666647593177 22.133331298828125 Q 413.19999980926514 22.133331298828125 413.86666647593177 22.133331298828125 Q 414.53333314259845 22.133331298828125 414.86666647593177 22.133331298828125 Q 415.19999980926514 22.133331298828125 415.53333314259845 22.133331298828125 Q 415.86666647593177 22.133331298828125 416.19999980926514 22.133331298828125 Q 416.53333314259845 22.133331298828125 416.86666647593177 22.133331298828125 Q 417.19999980926514 22.133331298828125 417.53333314259845 22.133331298828125 L 417.87166647593176 22.133331298828125" stroke-linecap="round" />
</g>
<g transform="matrix(1 0 0 1 323.84 135.06)"  >
<path style="stroke: rgb(247,245,245); stroke-width: 5; stroke-dasharray: none; stroke-linecap: round; stroke-dashoffset: 0; stroke-linejoin: round; stroke-miterlimit: 10; fill: none; fill-rule: nonzero; opacity: 1;"  transform=" translate(-408.2, -71.13)" d="M 413.86666647593177 24.79499796549479 Q 413.86666647593177 24.79999796549479 413.86666647593177 25.133331298828125 Q 413.86666647593177 25.466664632161457 413.86666647593177 25.79999796549479 Q 413.86666647593177 26.133331298828125 413.86666647593177 26.466664632161457 Q 413.86666647593177 26.79999796549479 413.86666647593177 27.133331298828125 Q 413.86666647593177 27.466664632161457 413.86666647593177 28.133331298828125 Q 413.86666647593177 28.79999796549479 413.86666647593177 29.466664632161457 Q 413.86666647593177 30.133331298828125 413.86666647593177 30.466664632161457 Q 413.86666647593177 30.79999796549479 413.86666647593177 31.133331298828125 Q 413.86666647593177 31.466664632161457 413.86666647593177 32.133331298828125 Q 413.86666647593177 32.79999796549479 413.86666647593177 33.133331298828125 Q 413.86666647593177 33.466664632161454 413.86666647593177 33.79999796549479 Q 413.86666647593177 34.133331298828125 413.86666647593177 34.79999796549479 Q 413.86666647593177 35.466664632161454 413.86666647593177 36.466664632161454 Q 413.86666647593177 37.466664632161454 413.86666647593177 37.79999796549479 Q 413.86666647593177 38.133331298828125 413.86666647593177 38.466664632161454 Q 413.86666647593177 38.79999796549479 413.86666647593177 39.133331298828125 Q 413.86666647593177 39.466664632161454 413.86666647593177 39.79999796549479 Q 413.86666647593177 40.133331298828125 413.86666647593177 40.466664632161454 Q 413.86666647593177 40.79999796549479 413.86666647593177 41.133331298828125 Q 413.86666647593177 41.466664632161454 413.53333314259845 42.133331298828125 Q 413.19999980926514 42.79999796549479 413.19999980926514 43.133331298828125 Q 413.19999980926514 43.466664632161454 413.19999980926514 43.79999796549479 Q 413.19999980926514 44.133331298828125 413.19999980926514 44.466664632161454 Q 413.19999980926514 44.79999796549479 413.19999980926514 45.133331298828125 Q 413.19999980926514 45.466664632161454 413.19999980926514 46.133331298828125 Q 413.19999980926514 46.79999796549479 413.19999980926514 47.79999796549479 Q 413.19999980926514 48.79999796549479 413.19999980926514 50.133331298828125 Q 413.19999980926514 51.466664632161454 413.19999980926514 52.133331298828125 Q 413.19999980926514 52.79999796549479 413.19999980926514 53.466664632161454 Q 413.19999980926514 54.133331298828125 413.19999980926514 54.466664632161454 Q 413.19999980926514 54.79999796549479 413.19999980926514 55.466664632161454 Q 413.19999980926514 56.133331298828125 413.19999980926514 56.466664632161454 Q 413.19999980926514 56.79999796549479 413.19999980926514 57.79999796549479 Q 413.19999980926514 58.79999796549479 413.19999980926514 59.466664632161454 Q 413.19999980926514 60.133331298828125 413.19999980926514 61.133331298828125 Q 413.19999980926514 62.133331298828125 413.19999980926514 62.466664632161454 Q 413.19999980926514 62.79999796549479 413.19999980926514 63.133331298828125 Q 413.19999980926514 63.466664632161454 413.19999980926514 64.13333129882812 Q 413.19999980926514 64.79999796549478 413.19999980926514 65.13333129882812 Q 413.19999980926514 65.46666463216145 413.19999980926514 65.79999796549478 Q 413.19999980926514 66.13333129882812 413.19999980926514 66.79999796549478 Q 413.19999980926514 67.46666463216145 413.19999980926514 68.13333129882812 Q 413.19999980926514 68.79999796549478 413.19999980926514 69.46666463216145 Q 413.19999980926514 70.13333129882812 413.19999980926514 70.46666463216145 Q 413.19999980926514 70.79999796549478 413.19999980926514 71.13333129882812 Q 413.19999980926514 71.46666463216145 413.19999980926514 72.13333129882812 Q 413.19999980926514 72.79999796549478 413.53333314259845 73.13333129882812 Q 413.86666647593177 73.46666463216145 413.86666647593177 74.46666463216145 Q 413.86666647593177 75.46666463216145 413.86666647593177 76.13333129882812 Q 413.86666647593177 76.79999796549478 413.86666647593177 77.46666463216145 Q 413.86666647593177 78.13333129882812 413.86666647593177 79.13333129882812 Q 413.86666647593177 80.13333129882812 413.86666647593177 80.46666463216145 Q 413.86666647593177 80.79999796549478 413.86666647593177 81.46666463216145 Q 413.86666647593177 82.13333129882812 413.86666647593177 82.79999796549478 Q 413.86666647593177 83.46666463216145 413.86666647593177 84.79999796549478 Q 413.86666647593177 86.13333129882812 413.86666647593177 86.79999796549478 Q 413.86666647593177 87.46666463216145 413.86666647593177 88.46666463216145 Q 413.86666647593177 89.46666463216145 413.86666647593177 90.13333129882812 Q 413.86666647593177 90.79999796549478 413.86666647593177 91.13333129882812 Q 413.86666647593177 91.46666463216145 413.86666647593177 91.79999796549478 Q 413.86666647593177 92.13333129882812 413.53333314259845 92.13333129882812 Q 413.19999980926514 92.13333129882812 413.19999980926514 91.79999796549478 Q 413.19999980926514 91.46666463216145 412.86666647593177 91.46666463216145 Q 412.53333314259845 91.46666463216145 412.53333314259845 91.13333129882812 Q 412.53333314259845 90.79999796549478 412.53333314259845 90.46666463216145 Q 412.53333314259845 90.13333129882812 412.53333314259845 89.46666463216145 Q 412.53333314259845 88.79999796549478 412.53333314259845 88.13333129882812 Q 412.53333314259845 87.46666463216145 412.53333314259845 86.79999796549478 Q 412.53333314259845 86.13333129882812 412.53333314259845 85.13333129882812 Q 412.53333314259845 84.13333129882812 412.53333314259845 83.79999796549478 Q 412.53333314259845 83.46666463216145 412.53333314259845 83.13333129882812 Q 412.53333314259845 82.79999796549478 412.53333314259845 82.46666463216145 Q 412.53333314259845 82.13333129882812 412.53333314259845 81.79999796549478 Q 412.53333314259845 81.46666463216145 412.53333314259845 81.13333129882812 Q 412.53333314259845 80.79999796549478 412.53333314259845 80.13333129882812 Q 412.53333314259845 79.46666463216145 412.53333314259845 79.13333129882812 Q 412.53333314259845 78.79999796549478 412.53333314259845 78.46666463216145 Q 412.53333314259845 78.13333129882812 412.53333314259845 77.79999796549478 Q 412.53333314259845 77.46666463216145 412.53333314259845 76.79999796549478 Q 412.53333314259845 76.13333129882812 412.53333314259845 75.79999796549478 Q 412.53333314259845 75.46666463216145 412.19999980926514 75.13333129882812 Q 411.86666647593177 74.79999796549478 411.86666647593177 74.13333129882812 Q 411.86666647593177 73.46666463216145 411.19999980926514 73.13333129882812 Q 410.53333314259845 72.79999796549478 410.53333314259845 72.13333129882812 Q 410.53333314259845 71.46666463216145 410.53333314259845 70.79999796549478 Q 410.53333314259845 70.13333129882812 410.53333314259845 69.79999796549478 Q 410.53333314259845 69.46666463216145 410.19999980926514 69.13333129882812 Q 409.86666647593177 68.79999796549478 409.86666647593177 68.46666463216145 Q 409.86666647593177 68.13333129882812 409.86666647593177 67.46666463216145 Q 409.86666647593177 66.79999796549478 409.86666647593177 66.13333129882812 Q 409.86666647593177 65.46666463216145 409.53333314259845 65.13333129882812 Q 409.19999980926514 64.79999796549478 408.86666647593177 64.13333129882812 Q 408.53333314259845 63.466664632161454 408.19999980926514 62.79999796549479 Q 407.86666647593177 62.133331298828125 407.86666647593177 61.466664632161454 Q 407.86666647593177 60.79999796549479 407.86666647593177 60.466664632161454 Q 407.86666647593177 60.133331298828125 407.86666647593177 59.79999796549479 Q 407.86666647593177 59.466664632161454 407.86666647593177 59.133331298828125 Q 407.86666647593177 58.79999796549479 407.86666647593177 58.133331298828125 Q 407.86666647593177 57.466664632161454 407.86666647593177 57.133331298828125 Q 407.86666647593177 56.79999796549479 407.86666647593177 55.79999796549479 Q 407.86666647593177 54.79999796549479 407.86666647593177 54.466664632161454 Q 407.86666647593177 54.133331298828125 407.86666647593177 53.79999796549479 Q 407.86666647593177 53.466664632161454 407.86666647593177 52.79999796549479 Q 407.86666647593177 52.133331298828125 407.86666647593177 51.79999796549479 Q 407.86666647593177 51.466664632161454 407.86666647593177 51.133331298828125 Q 407.86666647593177 50.79999796549479 407.86666647593177 50.466664632161454 Q 407.86666647593177 50.133331298828125 407.86666647593177 49.79999796549479 Q 407.86666647593177 49.466664632161454 407.86666647593177 49.133331298828125 Q 407.86666647593177 48.79999796549479 407.86666647593177 48.466664632161454 Q 407.86666647593177 48.133331298828125 407.86666647593177 47.79999796549479 Q 407.86666647593177 47.466664632161454 407.86666647593177 47.133331298828125 Q 407.86666647593177 46.79999796549479 407.86666647593177 46.466664632161454 Q 407.86666647593177 46.133331298828125 407.53333314259845 45.133331298828125 Q 407.19999980926514 44.133331298828125 407.19999980926514 43.79999796549479 Q 407.19999980926514 43.466664632161454 407.19999980926514 43.133331298828125 Q 407.19999980926514 42.79999796549479 407.19999980926514 42.133331298828125 Q 407.19999980926514 41.466664632161454 407.19999980926514 41.133331298828125 Q 407.19999980926514 40.79999796549479 407.19999980926514 40.133331298828125 Q 407.19999980926514 39.466664632161454 407.19999980926514 38.79999796549479 Q 407.19999980926514 38.133331298828125 407.19999980926514 37.79999796549479 Q 407.19999980926514 37.466664632161454 407.19999980926514 36.79999796549479 Q 407.19999980926514 36.133331298828125 407.19999980926514 35.79999796549479 Q 407.19999980926514 35.466664632161454 407.19999980926514 35.133331298828125 Q 407.19999980926514 34.79999796549479 407.19999980926514 34.466664632161454 Q 407.19999980926514 34.133331298828125 407.19999980926514 33.79999796549479 Q 407.19999980926514 33.466664632161454 407.19999980926514 33.133331298828125 Q 407.19999980926514 32.79999796549479 407.19999980926514 32.466664632161454 Q 407.19999980926514 32.133331298828125 407.19999980926514 31.79999796549479 Q 407.19999980926514 31.466664632161457 407.19999980926514 31.133331298828125 Q 407.19999980926514 30.79999796549479 407.53333314259845 30.466664632161457 Q 407.86666647593177 30.133331298828125 408.19999980926514 30.133331298828125 Q 408.53333314259845 30.133331298828125 408.53333314259845 29.79999796549479 Q 408.53333314259845 29.466664632161457 408.53333314259845 29.133331298828125 Q 408.53333314259845 28.79999796549479 408.86666647593177 28.79999796549479 Q 409.19999980926514 28.79999796549479 409.19999980926514 28.466664632161457 Q 409.19999980926514 28.133331298828125 409.19999980926514 27.79999796549479 Q 409.19999980926514 27.466664632161457 409.53333314259845 27.466664632161457 Q 409.86666647593177 27.466664632161457 409.86666647593177 27.133331298828125 Q 409.86666647593177 26.79999796549479 409.86666647593177 26.466664632161457 Q 409.86666647593177 26.133331298828125 409.86666647593177 25.79999796549479 Q 409.86666647593177 25.466664632161457 409.86666647593177 25.133331298828125 Q 409.86666647593177 24.79999796549479 409.86666647593177 24.466664632161457 Q 409.86666647593177 24.133331298828125 409.86666647593177 23.79999796549479 Q 409.86666647593177 23.466664632161457 410.19999980926514 23.466664632161457 Q 410.53333314259845 23.466664632161457 411.19999980926514 24.466664632161457 Q 411.86666647593177 25.466664632161457 412.19999980926514 26.466664632161457 Q 412.53333314259845 27.466664632161457 412.53333314259845 28.79999796549479 Q 412.53333314259845 30.133331298828125 412.53333314259845 30.466664632161457 Q 412.53333314259845 30.79999796549479 412.53333314259845 31.466664632161457 Q 412.53333314259845 32.133331298828125 412.53333314259845 32.466664632161454 Q 412.53333314259845 32.79999796549479 412.53333314259845 33.466664632161454 Q 412.53333314259845 34.133331298828125 412.53333314259845 34.79999796549479 Q 412.53333314259845 35.466664632161454 412.53333314259845 36.133331298828125 Q 412.53333314259845 36.79999796549479 412.53333314259845 37.133331298828125 Q 412.53333314259845 37.466664632161454 412.53333314259845 37.79999796549479 Q 412.53333314259845 38.133331298828125 412.53333314259845 38.466664632161454 Q 412.53333314259845 38.79999796549479 412.53333314259845 39.133331298828125 Q 412.53333314259845 39.466664632161454 412.53333314259845 39.79999796549479 Q 412.53333314259845 40.133331298828125 412.53333314259845 40.466664632161454 Q 412.53333314259845 40.79999796549479 412.19999980926514 41.79999796549479 Q 411.86666647593177 42.79999796549479 411.86666647593177 43.133331298828125 Q 411.86666647593177 43.466664632161454 411.86666647593177 44.79999796549479 Q 411.86666647593177 46.133331298828125 411.53333314259845 46.133331298828125 Q 411.19999980926514 46.133331298828125 411.19999980926514 46.466664632161454 Q 411.19999980926514 46.79999796549479 411.19999980926514 47.466664632161454 Q 411.19999980926514 48.133331298828125 411.19999980926514 48.466664632161454 Q 411.19999980926514 48.79999796549479 411.19999980926514 49.79999796549479 Q 411.19999980926514 50.79999796549479 411.19999980926514 51.133331298828125 Q 411.19999980926514 51.466664632161454 411.19999980926514 52.466664632161454 Q 411.19999980926514 53.466664632161454 411.19999980926514 53.79999796549479 Q 411.19999980926514 54.133331298828125 411.19999980926514 54.79999796549479 Q 411.19999980926514 55.466664632161454 411.19999980926514 55.79999796549479 Q 411.19999980926514 56.133331298828125 411.19999980926514 56.466664632161454 Q 411.19999980926514 56.79999796549479 411.19999980926514 57.79999796549479 Q 411.19999980926514 58.79999796549479 411.19999980926514 59.466664632161454 Q 411.19999980926514 60.133331298828125 411.19999980926514 61.133331298828125 Q 411.19999980926514 62.133331298828125 411.19999980926514 63.133331298828125 Q 411.19999980926514 64.13333129882812 411.19999980926514 64.46666463216145 Q 411.19999980926514 64.79999796549478 411.19999980926514 65.13333129882812 Q 411.19999980926514 65.46666463216145 411.19999980926514 65.79999796549478 Q 411.19999980926514 66.13333129882812 411.19999980926514 66.46666463216145 Q 411.19999980926514 66.79999796549478 411.19999980926514 67.13333129882812 Q 411.19999980926514 67.46666463216145 411.19999980926514 68.13333129882812 Q 411.19999980926514 68.79999796549478 411.19999980926514 69.46666463216145 Q 411.19999980926514 70.13333129882812 411.19999980926514 70.46666463216145 Q 411.19999980926514 70.79999796549478 410.86666647593177 71.46666463216145 Q 410.53333314259845 72.13333129882812 410.53333314259845 72.46666463216145 Q 410.53333314259845 72.79999796549478 410.53333314259845 72.46666463216145 Q 410.53333314259845 72.13333129882812 410.53333314259845 71.79999796549478 Q 410.53333314259845 71.46666463216145 410.19999980926514 69.79999796549478 Q 409.86666647593177 68.13333129882812 409.53333314259845 66.46666463216145 Q 409.19999980926514 64.79999796549478 408.86666647593177 63.466664632161454 Q 408.53333314259845 62.133331298828125 408.53333314259845 60.79999796549479 Q 408.53333314259845 59.466664632161454 408.53333314259845 58.466664632161454 Q 408.53333314259845 57.466664632161454 408.53333314259845 57.133331298828125 Q 408.53333314259845 56.79999796549479 408.53333314259845 56.133331298828125 Q 408.53333314259845 55.466664632161454 408.53333314259845 54.466664632161454 Q 408.53333314259845 53.466664632161454 408.53333314259845 52.466664632161454 Q 408.53333314259845 51.466664632161454 408.53333314259845 50.133331298828125 Q 408.53333314259845 48.79999796549479 408.53333314259845 48.133331298828125 Q 408.53333314259845 47.466664632161454 408.53333314259845 46.79999796549479 Q 408.53333314259845 46.133331298828125 408.53333314259845 45.466664632161454 Q 408.53333314259845 44.79999796549479 408.53333314259845 44.133331298828125 Q 408.53333314259845 43.466664632161454 408.86666647593177 43.466664632161454 Q 409.19999980926514 43.466664632161454 409.53333314259845 43.133331298828125 Q 409.86666647593177 42.79999796549479 409.86666647593177 41.79999796549479 Q 409.86666647593177 40.79999796549479 409.86666647593177 40.466664632161454 Q 409.86666647593177 40.133331298828125 409.86666647593177 39.466664632161454 Q 409.86666647593177 38.79999796549479 409.86666647593177 38.466664632161454 Q 409.86666647593177 38.133331298828125 409.86666647593177 36.79999796549479 Q 409.86666647593177 35.466664632161454 409.86666647593177 34.466664632161454 Q 409.86666647593177 33.466664632161454 409.86666647593177 33.133331298828125 Q 409.86666647593177 32.79999796549479 409.86666647593177 32.466664632161454 Q 409.86666647593177 32.133331298828125 409.86666647593177 32.466664632161454 Q 409.86666647593177 32.79999796549479 409.86666647593177 33.133331298828125 Q 409.86666647593177 33.466664632161454 409.86666647593177 35.79999796549479 Q 409.86666647593177 38.133331298828125 409.86666647593177 39.466664632161454 Q 409.86666647593177 40.79999796549479 410.19999980926514 41.79999796549479 Q 410.53333314259845 42.79999796549479 410.86666647593177 43.133331298828125 Q 411.19999980926514 43.466664632161454 411.19999980926514 43.79999796549479 Q 411.19999980926514 44.133331298828125 411.19999980926514 45.133331298828125 Q 411.19999980926514 46.133331298828125 411.19999980926514 47.466664632161454 Q 411.19999980926514 48.79999796549479 411.19999980926514 50.133331298828125 Q 411.19999980926514 51.466664632161454 411.19999980926514 53.133331298828125 Q 411.19999980926514 54.79999796549479 411.19999980926514 55.79999796549479 Q 411.19999980926514 56.79999796549479 411.19999980926514 57.133331298828125 Q 411.19999980926514 57.466664632161454 411.19999980926514 58.133331298828125 Q 411.19999980926514 58.79999796549479 411.19999980926514 59.466664632161454 Q 411.19999980926514 60.133331298828125 411.19999980926514 61.133331298828125 Q 411.19999980926514 62.133331298828125 411.19999980926514 62.79999796549479 Q 411.19999980926514 63.466664632161454 411.19999980926514 63.79999796549479 Q 411.19999980926514 64.13333129882812 411.19999980926514 64.46666463216145 Q 411.19999980926514 64.79999796549478 411.19999980926514 65.46666463216145 Q 411.19999980926514 66.13333129882812 411.19999980926514 66.79999796549478 Q 411.19999980926514 67.46666463216145 411.19999980926514 67.79999796549478 Q 411.19999980926514 68.13333129882812 411.19999980926514 68.46666463216145 Q 411.19999980926514 68.79999796549478 411.19999980926514 69.46666463216145 Q 411.19999980926514 70.13333129882812 411.19999980926514 70.46666463216145 Q 411.19999980926514 70.79999796549478 411.19999980926514 71.79999796549478 Q 411.19999980926514 72.79999796549478 411.19999980926514 73.13333129882812 Q 411.19999980926514 73.46666463216145 410.86666647593177 74.13333129882812 Q 410.53333314259845 74.79999796549478 410.19999980926514 75.46666463216145 Q 409.86666647593177 76.13333129882812 409.86666647593177 76.79999796549478 Q 409.86666647593177 77.46666463216145 409.86666647593177 77.79999796549478 Q 409.86666647593177 78.13333129882812 409.86666647593177 78.46666463216145 Q 409.86666647593177 78.79999796549478 409.86666647593177 79.13333129882812 Q 409.86666647593177 79.46666463216145 409.86666647593177 80.13333129882812 Q 409.86666647593177 80.79999796549478 409.53333314259845 81.79999796549478 Q 409.19999980926514 82.79999796549478 409.19999980926514 83.79999796549478 Q 409.19999980926514 84.79999796549478 408.86666647593177 85.46666463216145 Q 408.53333314259845 86.13333129882812 408.53333314259845 86.46666463216145 Q 408.53333314259845 86.79999796549478 408.53333314259845 87.13333129882812 Q 408.53333314259845 87.46666463216145 408.53333314259845 87.79999796549478 Q 408.53333314259845 88.13333129882812 408.19999980926514 88.46666463216145 Q 407.86666647593177 88.79999796549478 407.53333314259845 89.79999796549478 Q 407.19999980926514 90.79999796549478 407.19999980926514 91.46666463216145 Q 407.19999980926514 92.13333129882812 406.86666647593177 93.13333129882812 Q 406.53333314259845 94.13333129882812 406.53333314259845 95.46666463216145 Q 406.53333314259845 96.79999796549478 406.19999980926514 97.13333129882812 Q 405.86666647593177 97.46666463216145 405.86666647593177 98.13333129882812 Q 405.86666647593177 98.79999796549478 405.86666647593177 99.13333129882812 Q 405.86666647593177 99.46666463216145 405.86666647593177 99.79999796549478 Q 405.86666647593177 100.13333129882812 405.86666647593177 100.46666463216145 Q 405.86666647593177 100.79999796549478 405.86666647593177 101.46666463216145 Q 405.86666647593177 102.13333129882812 405.86666647593177 102.46666463216145 Q 405.86666647593177 102.79999796549478 405.86666647593177 103.46666463216145 Q 405.86666647593177 104.13333129882812 405.86666647593177 104.46666463216145 Q 405.86666647593177 104.79999796549478 405.86666647593177 105.13333129882812 Q 405.86666647593177 105.46666463216145 405.86666647593177 105.79999796549478 Q 405.86666647593177 106.13333129882812 405.86666647593177 106.79999796549478 Q 405.86666647593177 107.46666463216145 405.86666647593177 107.79999796549478 Q 405.86666647593177 108.13333129882812 405.86666647593177 108.46666463216145 Q 405.86666647593177 108.79999796549478 405.86666647593177 109.13333129882812 Q 405.86666647593177 109.46666463216145 405.86666647593177 109.79999796549478 Q 405.86666647593177 110.13333129882812 405.86666647593177 110.46666463216145 Q 405.86666647593177 110.79999796549478 405.86666647593177 111.13333129882812 Q 405.86666647593177 111.46666463216145 405.86666647593177 112.13333129882812 Q 405.86666647593177 112.79999796549478 405.86666647593177 113.13333129882812 Q 405.86666647593177 113.46666463216145 405.86666647593177 113.79999796549478 Q 405.86666647593177 114.13333129882812 405.86666647593177 114.46666463216145 Q 405.86666647593177 114.79999796549478 405.86666647593177 115.13333129882812 Q 405.86666647593177 115.46666463216145 405.86666647593177 115.79999796549478 Q 405.86666647593177 116.13333129882812 405.86666647593177 116.46666463216145 Q 405.86666647593177 116.79999796549478 405.86666647593177 117.13333129882812 Q 405.86666647593177 117.46666463216145 405.86666647593177 117.79999796549478 Q 405.86666647593177 118.13333129882812 405.86666647593177 118.46666463216145 Q 405.86666647593177 118.79999796549478 405.53333314259845 118.79999796549478 Q 405.19999980926514 118.79999796549478 405.19999980926514 118.46666463216145 Q 405.19999980926514 118.13333129882812 404.86666647593177 118.13333129882812 Q 404.53333314259845 118.13333129882812 404.53333314259845 116.13333129882812 Q 404.53333314259845 114.13333129882812 404.19999980926514 111.79999796549478 Q 403.86666647593177 109.46666463216145 403.53333314259845 107.13333129882812 Q 403.19999980926514 104.79999796549478 402.86666647593177 103.13333129882812 Q 402.53333314259845 101.46666463216145 402.53333314259845 99.79999796549478 Q 402.53333314259845 98.13333129882812 402.53333314259845 97.13333129882812 Q 402.53333314259845 96.13333129882812 402.53333314259845 94.79999796549478 Q 402.53333314259845 93.46666463216145 402.86666647593177 91.79999796549478 Q 403.19999980926514 90.13333129882812 403.53333314259845 89.13333129882812 Q 403.86666647593177 88.13333129882812 404.19999980926514 87.13333129882812 Q 404.53333314259845 86.13333129882812 404.53333314259845 85.46666463216145 Q 404.53333314259845 84.79999796549478 404.53333314259845 83.79999796549478 Q 404.53333314259845 82.79999796549478 404.86666647593177 82.13333129882812 Q 405.19999980926514 81.46666463216145 405.53333314259845 80.79999796549478 Q 405.86666647593177 80.13333129882812 405.86666647593177 79.46666463216145 Q 405.86666647593177 78.79999796549478 406.19999980926514 78.46666463216145 Q 406.53333314259845 78.13333129882812 406.53333314259845 77.79999796549478 Q 406.53333314259845 77.46666463216145 406.53333314259845 77.13333129882812 Q 406.53333314259845 76.79999796549478 406.53333314259845 76.46666463216145 Q 406.53333314259845 76.13333129882812 406.86666647593177 75.79999796549478 Q 407.19999980926514 75.46666463216145 407.19999980926514 74.46666463216145 Q 407.19999980926514 73.46666463216145 407.53333314259845 72.46666463216145 Q 407.86666647593177 71.46666463216145 408.19999980926514 70.46666463216145 Q 408.53333314259845 69.46666463216145 408.53333314259845 68.79999796549478 Q 408.53333314259845 68.13333129882812 408.53333314259845 67.79999796549478 Q 408.53333314259845 67.46666463216145 408.53333314259845 66.46666463216145 L 408.53333314259845 65.46166463216146" stroke-linecap="round" />
</g>
<g transform="matrix(1 0 0 1 325.23 169.87)"  >
<path style="stroke: rgb(247,245,245); stroke-width: 5; stroke-dasharray: none; stroke-linecap: round; stroke-dashoffset: 0; stroke-linejoin: round; stroke-miterlimit: 10; fill: none; fill-rule: nonzero; opacity: 1;"  transform=" translate(-409.59, -105.94)" d="M 408.7008819041533 89.17147081262925 Q 408.7058819041533 89.17647081262925 408.7058819041533 89.47058845968807 Q 408.7058819041533 89.7647061067469 408.9999995512121 90.05882375380573 Q 409.2941171982709 90.35294140086455 409.8823524923886 90.64705904792336 Q 410.4705877865062 90.94117669498219 410.76470543356504 91.23529434204102 Q 411.0588230806239 91.52941198909984 411.0588230806239 91.82352963615867 Q 411.0588230806239 92.1176472832175 411.3529407276827 92.41176493027632 Q 411.6470583747415 92.70588257733513 411.94117602180035 93.00000022439396 Q 412.2352936688592 93.29411787145278 412.2352936688592 93.58823551851161 Q 412.2352936688592 93.88235316557044 412.2352936688592 94.17647081262925 Q 412.2352936688592 94.47058845968807 412.2352936688592 94.7647061067469 Q 412.2352936688592 95.05882375380573 412.2352936688592 95.35294140086455 Q 412.2352936688592 95.64705904792338 412.2352936688592 96.23529434204102 Q 412.2352936688592 96.82352963615867 412.8235289629768 97.70588257733513 Q 413.41176425709443 98.58823551851161 413.41176425709443 98.88235316557044 Q 413.41176425709443 99.17647081262925 413.41176425709443 99.47058845968807 Q 413.41176425709443 99.7647061067469 413.41176425709443 100.05882375380573 Q 413.41176425709443 100.35294140086455 413.41176425709443 100.64705904792336 Q 413.41176425709443 100.94117669498219 413.41176425709443 101.52941198909984 Q 413.41176425709443 102.1176472832175 413.41176425709443 102.41176493027632 Q 413.41176425709443 102.70588257733513 413.41176425709443 103.00000022439396 Q 413.41176425709443 103.29411787145278 413.41176425709443 103.58823551851161 Q 413.41176425709443 103.88235316557044 413.11764661003565 104.47058845968809 Q 412.8235289629768 105.05882375380573 412.8235289629768 105.35294140086455 Q 412.8235289629768 105.64705904792338 412.8235289629768 105.9411766949822 Q 412.8235289629768 106.23529434204102 412.8235289629768 106.52941198909984 Q 412.8235289629768 106.82352963615867 412.8235289629768 107.41176493027632 Q 412.8235289629768 108.00000022439396 412.8235289629768 108.29411787145278 Q 412.8235289629768 108.58823551851161 412.8235289629768 108.88235316557044 Q 412.8235289629768 109.17647081262925 412.8235289629768 109.7647061067469 Q 412.8235289629768 110.35294140086455 412.8235289629768 110.64705904792336 Q 412.8235289629768 110.94117669498219 412.8235289629768 111.23529434204102 Q 412.8235289629768 111.52941198909984 412.8235289629768 111.82352963615867 Q 412.8235289629768 112.1176472832175 412.8235289629768 112.41176493027632 Q 412.8235289629768 112.70588257733513 412.52941131591797 112.70588257733513 Q 412.2352936688592 112.70588257733513 412.2352936688592 113.00000022439396 Q 412.2352936688592 113.29411787145278 412.2352936688592 113.58823551851161 Q 412.2352936688592 113.88235316557044 412.2352936688592 114.17647081262925 Q 412.2352936688592 114.47058845968807 411.94117602180035 114.7647061067469 Q 411.6470583747415 115.05882375380573 411.3529407276827 115.05882375380573 Q 411.0588230806239 115.05882375380573 411.0588230806239 115.35294140086455 Q 411.0588230806239 115.64705904792338 411.0588230806239 115.9411766949822 Q 411.0588230806239 116.23529434204102 411.0588230806239 116.52941198909984 Q 411.0588230806239 116.82352963615867 411.0588230806239 117.1176472832175 Q 411.0588230806239 117.41176493027632 410.76470543356504 117.41176493027632 Q 410.4705877865062 117.41176493027632 410.4705877865062 117.70588257733513 Q 410.4705877865062 118.00000022439396 410.17647013944736 118.29411787145278 Q 409.8823524923886 118.58823551851161 409.8823524923886 118.88235316557044 Q 409.8823524923886 119.17647081262926 409.58823484532974 119.47058845968809 Q 409.2941171982709 119.7647061067469 408.9999995512121 119.7647061067469 Q 408.7058819041533 119.7647061067469 408.7058819041533 120.05882375380573 Q 408.7058819041533 120.35294140086455 408.41176425709443 120.35294140086455 Q 408.11764661003565 120.35294140086455 408.11764661003565 120.64705904792336 Q 408.11764661003565 120.94117669498219 407.8235289629768 120.94117669498219 Q 407.52941131591797 120.94117669498219 407.2352936688592 120.94117669498219 Q 406.94117602180035 120.94117669498219 406.94117602180035 121.52941198909984 Q 406.94117602180035 122.1176472832175 406.6470583747415 122.1176472832175 Q 406.35294072768266 122.1176472832175 406.35294072768266 122.41176493027632 Q 406.35294072768266 122.70588257733513 406.0588230806238 122.70588257733513 L 405.75970543356505 122.70588257733513" stroke-linecap="round" />
</g>
<g transform="matrix(1 0 0 1 325.53 166)"  >
<path style="stroke: rgb(247,245,245); stroke-width: 5; stroke-dasharray: none; stroke-linecap: round; stroke-dashoffset: 0; stroke-linejoin: round; stroke-miterlimit: 10; fill: none; fill-rule: nonzero; opacity: 1;"  transform=" translate(-409.88, -102.08)" d="M 410.4655877865062 96.81852963615867 Q 410.4705877865062 96.82352963615867 410.4705877865062 97.1176472832175 Q 410.4705877865062 97.41176493027632 410.76470543356504 97.70588257733513 Q 411.0588230806239 98.00000022439396 411.0588230806239 98.29411787145278 Q 411.0588230806239 98.58823551851161 411.0588230806239 98.88235316557044 Q 411.0588230806239 99.17647081262925 411.0588230806239 100.05882375380571 Q 411.0588230806239 100.94117669498219 411.0588230806239 101.52941198909984 Q 411.0588230806239 102.1176472832175 411.0588230806239 102.70588257733513 Q 411.0588230806239 103.29411787145278 411.0588230806239 103.58823551851161 Q 411.0588230806239 103.88235316557044 411.0588230806239 104.17647081262925 Q 411.0588230806239 104.47058845968807 411.0588230806239 105.05882375380573 Q 411.0588230806239 105.64705904792338 411.0588230806239 105.9411766949822 Q 411.0588230806239 106.23529434204102 411.0588230806239 106.82352963615867 Q 411.0588230806239 107.41176493027632 411.0588230806239 107.70588257733513 Q 411.0588230806239 108.00000022439396 411.0588230806239 108.29411787145278 Q 411.0588230806239 108.58823551851161 411.0588230806239 108.88235316557044 Q 411.0588230806239 109.17647081262925 411.0588230806239 109.47058845968807 Q 411.0588230806239 109.7647061067469 411.0588230806239 110.05882375380573 Q 411.0588230806239 110.35294140086455 411.0588230806239 110.9411766949822 Q 411.0588230806239 111.52941198909984 411.0588230806239 111.82352963615867 Q 411.0588230806239 112.1176472832175 411.0588230806239 112.41176493027632 Q 411.0588230806239 112.70588257733513 410.76470543356504 113.00000022439396 Q 410.4705877865062 113.29411787145278 410.4705877865062 113.58823551851161 Q 410.4705877865062 113.88235316557044 410.4705877865062 113.58823551851161 Q 410.4705877865062 113.29411787145278 410.17647013944736 113.29411787145278 Q 409.8823524923886 113.29411787145278 409.58823484532974 113.29411787145278 Q 409.2941171982709 113.29411787145278 409.2941171982709 112.70588257733513 Q 409.2941171982709 112.1176472832175 408.9999995512121 110.64705904792336 Q 408.7058819041533 109.17647081262925 408.7058819041533 107.70588257733513 Q 408.7058819041533 106.23529434204102 408.7058819041533 105.64705904792336 Q 408.7058819041533 105.05882375380573 408.7058819041533 104.17647081262925 Q 408.7058819041533 103.29411787145278 408.7058819041533 102.70588257733513 Q 408.7058819041533 102.1176472832175 408.7058819041533 101.52941198909984 Q 408.7058819041533 100.94117669498219 408.7058819041533 100.64705904792336 Q 408.7058819041533 100.35294140086455 408.7058819041533 99.7647061067469 Q 408.7058819041533 99.17647081262925 408.7058819041533 98.88235316557044 Q 408.7058819041533 98.58823551851161 408.7058819041533 97.41176493027632 Q 408.7058819041533 96.23529434204102 408.7058819041533 95.05882375380573 Q 408.7058819041533 93.88235316557044 408.7058819041533 92.70588257733513 Q 408.7058819041533 91.52941198909984 408.7058819041533 91.23529434204102 Q 408.7058819041533 90.94117669498219 408.7058819041533 90.64705904792336 L 408.7058819041533 90.34794140086456" stroke-linecap="round" />
</g>
<g transform="matrix(1 0 0 1 397.28 179.57)"  >
<path style="stroke: rgb(247,245,245); stroke-width: 5; stroke-dasharray: none; stroke-linecap: round; stroke-dashoffset: 0; stroke-linejoin: round; stroke-miterlimit: 10; fill: none; fill-rule: nonzero; opacity: 1;"  transform=" translate(-481.65, -115.65)" d="M 481.6420583747415 115.64705904792338 L 481.6520583747415 115.64705904792338" stroke-linecap="round" />
</g>
<g transform="matrix(1 0 0 1 326.11 195.75)"  >
<path style="stroke: rgb(247,245,245); stroke-width: 5; stroke-dasharray: none; stroke-linecap: round; stroke-dashoffset: 0; stroke-linejoin: round; stroke-miterlimit: 10; fill: none; fill-rule: nonzero; opacity: 1;"  transform=" translate(-410.47, -131.82)" d="M 409.8823524923886 130.34794140086456 Q 409.8823524923886 130.35294140086455 410.17647013944736 130.35294140086455 Q 410.4705877865062 130.35294140086455 410.4705877865062 130.6470590479234 Q 410.4705877865062 130.9411766949822 410.4705877865062 131.23529434204102 Q 410.4705877865062 131.52941198909986 410.76470543356504 131.52941198909986 Q 411.0588230806239 131.52941198909986 411.0588230806239 131.82352963615867 Q 411.0588230806239 132.11764728321748 411.0588230806239 132.41176493027632 Q 411.0588230806239 132.70588257733513 411.0588230806239 133.00000022439394 L 411.0588230806239 133.29911787145278" stroke-linecap="round" />
</g>
<g transform="matrix(1 0 0 1 322 191.34)"  >
<path style="stroke: rgb(247,245,245); stroke-width: 5; stroke-dasharray: none; stroke-linecap: round; stroke-dashoffset: 0; stroke-linejoin: round; stroke-miterlimit: 10; fill: none; fill-rule: nonzero; opacity: 1;"  transform=" translate(-406.35, -127.41)" d="M 406.34794072768267 127.41176493027632 L 406.35794072768266 127.41176493027632" stroke-linecap="round" />
</g>
<g transform="matrix(1 0 0 1 325.81 198.69)"  >
<path style="stroke: rgb(247,245,245); stroke-width: 1; stroke-dasharray: none; stroke-linecap: round; stroke-dashoffset: 0; stroke-linejoin: round; stroke-miterlimit: 10; fill: none; fill-rule: nonzero; opacity: 1;"  transform=" translate(-410.18, -134.76)" d="M 409.2941171982709 128.5872355185116 Q 409.2941171982709 128.5882355185116 409.2941171982709 128.8823531655704 Q 409.2941171982709 129.17647081262925 409.2941171982709 129.4705884596881 Q 409.2941171982709 129.7647061067469 409.2941171982709 130.6470590479234 Q 409.2941171982709 131.52941198909986 409.2941171982709 131.82352963615867 Q 409.2941171982709 132.11764728321748 409.2941171982709 132.41176493027632 Q 409.2941171982709 132.70588257733513 409.58823484532974 132.70588257733513 Q 409.8823524923886 132.70588257733513 410.17647013944736 133.29411787145278 Q 410.4705877865062 133.88235316557044 410.4705877865062 134.17647081262925 Q 410.4705877865062 134.4705884596881 410.4705877865062 134.76470610674693 Q 410.4705877865062 135.05882375380574 410.76470543356504 135.05882375380574 Q 411.0588230806239 135.05882375380574 411.0588230806239 135.35294140086455 Q 411.0588230806239 135.64705904792336 411.0588230806239 135.94117669498218 Q 411.0588230806239 136.23529434204102 411.0588230806239 136.52941198909986 Q 411.0588230806239 136.82352963615867 411.0588230806239 137.11764728321748 Q 411.0588230806239 137.41176493027632 411.0588230806239 137.70588257733516 Q 411.0588230806239 138.00000022439397 411.0588230806239 138.29411787145278 Q 411.0588230806239 138.5882355185116 411.0588230806239 138.8823531655704 Q 411.0588230806239 139.17647081262925 411.0588230806239 139.4705884596881 Q 411.0588230806239 139.7647061067469 411.0588230806239 140.0588237538057 Q 411.0588230806239 140.35294140086455 411.0588230806239 140.6470590479234 L 411.0588230806239 140.9421766949822" stroke-linecap="round" />
</g>
<g transform="matrix(1 0 0 1 350.23 186.04)"  >
<path style="stroke: rgb(247,245,245); stroke-width: 1; stroke-dasharray: none; stroke-linecap: round; stroke-dashoffset: 0; stroke-linejoin: round; stroke-miterlimit: 10; fill: none; fill-rule: nonzero; opacity: 1;"  transform=" translate(-434.59, -122.12)" d="M 434.58723484532976 122.1176472832175 L 434.5892348453297 122.1176472832175" stroke-linecap="round" />
</g>
<g transform="matrix(1 0 0 1 328.21 78.29)"  >
<path style="stroke: rgb(247,244,244); stroke-width: 5; stroke-dasharray: none; stroke-linecap: round; stroke-dashoffset: 0; stroke-linejoin: round; stroke-miterlimit: 10; fill: none; fill-rule: nonzero; opacity: 1;"  transform=" translate(-328.21, -38.29)" d="M 328.46218357880764 32.39014516933387 Q 328.46218357880764 32.39514516933387 328.46218357880764 32.651435887163046 Q 328.46218357880764 32.90772660499223 328.46218357880764 33.16401732282141 Q 328.46218357880764 33.42030804065059 328.46218357880764 33.67659875847977 Q 328.46218357880764 33.932889476308944 328.46218357880764 34.189180194138125 Q 328.46218357880764 34.445470911967305 328.46218357880764 34.70176162979648 Q 328.46218357880764 34.95805234762566 328.46218357880764 35.21434306545484 Q 328.46218357880764 35.47063378328402 328.46218357880764 35.7269245011132 Q 328.46218357880764 35.983215218942384 328.46218357880764 36.239505936771565 Q 328.46218357880764 36.49579665460074 328.46218357880764 36.75208737242992 Q 328.46218357880764 37.0083780902591 328.46218357880764 37.264668808088274 Q 328.46218357880764 37.520959525917455 328.46218357880764 37.777250243746636 Q 328.46218357880764 38.03354096157582 328.46218357880764 38.54612239723417 Q 328.46218357880764 39.05870383289253 328.46218357880764 39.314994550721714 Q 328.46218357880764 39.571285268550895 328.20589286097845 39.827575986380076 Q 327.9496021431493 40.08386670420926 327.9496021431493 40.34015742203843 Q 327.9496021431493 40.59644813986761 327.9496021431493 40.85273885769679 Q 327.9496021431493 41.109029575525966 327.9496021431493 41.36532029335515 Q 327.9496021431493 41.62161101118433 327.9496021431493 41.87790172901351 Q 327.9496021431493 42.13419244684269 327.9496021431493 42.39048316467186 Q 327.9496021431493 42.646773882501044 327.9496021431493 43.1593553181594 Q 327.9496021431493 43.67193675381776 327.9496021431493 43.92822747164695 L 327.9496021431493 44.18951818947613" stroke-linecap="round" />
</g>
<g transform="matrix(1 0 0 1 331.54 61.89)"  >
<path style="stroke: rgb(247,244,244); stroke-width: 5; stroke-dasharray: none; stroke-linecap: round; stroke-dashoffset: 0; stroke-linejoin: round; stroke-miterlimit: 10; fill: none; fill-rule: nonzero; opacity: 1;"  transform=" translate(-331.54, -21.89)" d="M 338.71881229197487 22.143516456166697 Q 338.7138122919749 22.143516456166697 338.7138122919749 21.88722573833752 Q 338.7138122919749 21.63093502050834 338.45752157414574 21.63093502050834 Q 338.20123085631656 21.63093502050834 337.94494013848737 21.63093502050834 Q 337.6886494206581 21.63093502050834 337.6886494206581 21.374644302679158 Q 337.6886494206581 21.11835358484998 336.9197772671706 21.11835358484998 Q 336.15090511368305 21.11835358484998 334.86945152453717 21.11835358484998 Q 333.5879979353913 21.11835358484998 332.30654434624535 21.11835358484998 Q 331.02509075709946 21.11835358484998 329.99992788578277 21.374644302679158 Q 328.974765014466 21.63093502050834 328.7184742966368 21.63093502050834 Q 328.46218357880764 21.63093502050834 328.20589286097845 21.63093502050834 Q 327.9496021431493 21.63093502050834 326.9244392718326 21.63093502050834 Q 325.8992764005159 21.63093502050834 325.1304042470283 22.143516456166694 L 324.3565320935408 22.66109789182505" stroke-linecap="round" />
</g>
<g transform="matrix(1 0 0 1 330.25 64.7)"  >
<path style="stroke: rgb(247,244,244); stroke-width: 5; stroke-dasharray: none; stroke-linecap: round; stroke-dashoffset: 0; stroke-linejoin: round; stroke-miterlimit: 10; fill: none; fill-rule: nonzero; opacity: 1;"  transform=" translate(-330.26, -24.71)" d="M 327.43202070749095 25.219005070116847 Q 327.43702070749094 25.219005070116847 327.69331142532013 25.219005070116847 Q 327.9496021431493 25.219005070116847 328.20589286097845 25.219005070116847 Q 328.46218357880764 25.219005070116847 328.974765014466 25.219005070116847 Q 329.4873464501244 25.219005070116847 330.51250932144114 25.219005070116847 Q 331.53767219275784 25.219005070116847 332.05025362841616 24.70642363445849 Q 332.56283506407453 24.193842198800134 332.8191257819037 24.193842198800134 L 333.08041649973296 24.193842198800134" stroke-linecap="round" />
</g>
<g transform="matrix(1 0 0 1 386.38 151.33)"  >
<line style="stroke: rgb(0,0,0); stroke-width: 2; stroke-dasharray: none; stroke-linecap: butt; stroke-dashoffset: 0; stroke-linejoin: miter; stroke-miterlimit: 4; fill: rgb(0,0,0); fill-rule: nonzero; opacity: 1;"  x1="0" y1="0" x2="0" y2="0" />
</g>
<g transform="matrix(1 0 0 1 328.45 203.83)"  >
<path style="stroke: rgb(251,248,248); stroke-width: 6; stroke-dasharray: none; stroke-linecap: round; stroke-dashoffset: 0; stroke-linejoin: round; stroke-miterlimit: 10; fill: none; fill-rule: nonzero; opacity: 1;"  transform=" translate(-328.46, -163.83)" d="M 325.33333460489905 160.9106653951009 Q 325.33333460489905 160.9166653951009 325.5416679382324 160.9166653951009 Q 325.75000127156574 160.9166653951009 325.75000127156574 161.1249987284342 Q 325.75000127156574 161.33333206176755 325.95833460489905 161.5416653951009 Q 326.16666793823237 161.74999872843424 326.16666793823237 161.95833206176758 Q 326.16666793823237 162.1666653951009 326.16666793823237 162.3749987284342 Q 326.16666793823237 162.58333206176755 326.16666793823237 162.7916653951009 Q 326.16666793823237 162.99999872843424 326.3750012715657 162.99999872843424 Q 326.58333460489905 162.99999872843424 326.58333460489905 163.20833206176758 Q 326.58333460489905 163.4166653951009 326.58333460489905 163.6249987284342 Q 326.58333460489905 163.83333206176755 326.58333460489905 164.0416653951009 Q 326.58333460489905 164.24999872843424 326.7916679382324 164.24999872843424 Q 327.00000127156574 164.24999872843424 327.00000127156574 164.45833206176758 Q 327.00000127156574 164.6666653951009 327.00000127156574 164.8749987284342 Q 327.00000127156574 165.08333206176755 327.00000127156574 165.2916653951009 Q 327.00000127156574 165.49999872843424 327.20833460489905 165.49999872843424 Q 327.41666793823237 165.49999872843424 327.41666793823237 165.70833206176758 Q 327.41666793823237 165.9166653951009 327.41666793823237 166.1249987284342 Q 327.41666793823237 166.33333206176755 327.41666793823237 166.5416653951009 Q 327.41666793823237 166.74999872843424 327.6250012715657 166.74999872843424 Q 327.83333460489905 166.74999872843424 328.2500012715657 166.33333206176758 Q 328.66666793823237 165.9166653951009 329.08333460489905 165.70833206176758 Q 329.50000127156574 165.49999872843424 330.12500127156574 165.08333206176758 Q 330.75000127156574 164.6666653951009 330.95833460489905 164.2499987284342 Q 331.16666793823237 163.83333206176755 331.3750012715657 163.83333206176755 Q 331.58333460489905 163.83333206176755 331.58333460489905 164.0416653951009 Q 331.58333460489905 164.24999872843424 331.58333460489905 164.45833206176758 Q 331.58333460489905 164.6666653951009 331.3750012715657 164.6666653951009 Q 331.16666793823237 164.6666653951009 331.16666793823237 164.8749987284342 L 331.16666793823237 165.08933206176755" stroke-linecap="round" />
</g>
<g transform="matrix(1 0 0 1 325.13 200.5)"  >
<path style="stroke: rgb(251,248,248); stroke-width: 6; stroke-dasharray: none; stroke-linecap: round; stroke-dashoffset: 0; stroke-linejoin: round; stroke-miterlimit: 10; fill: none; fill-rule: nonzero; opacity: 1;"  transform=" translate(-325.13, -160.5)" d="M 324.50000127156574 153.82733206176758 Q 324.50000127156574 153.83333206176758 324.50000127156574 154.24999872843424 Q 324.50000127156574 154.6666653951009 324.50000127156574 154.87499872843424 Q 324.50000127156574 155.08333206176758 324.70833460489905 155.08333206176758 Q 324.91666793823237 155.08333206176758 324.91666793823237 155.2916653951009 Q 324.91666793823237 155.49999872843424 325.1250012715657 155.49999872843424 Q 325.33333460489905 155.49999872843424 325.33333460489905 155.70833206176758 Q 325.33333460489905 155.9166653951009 325.33333460489905 156.12499872843424 Q 325.33333460489905 156.33333206176758 325.33333460489905 156.5416653951009 Q 325.33333460489905 156.74999872843424 325.33333460489905 156.95833206176758 Q 325.33333460489905 157.1666653951009 325.33333460489905 157.37499872843424 Q 325.33333460489905 157.58333206176758 325.33333460489905 157.7916653951009 Q 325.33333460489905 157.99999872843424 325.33333460489905 158.20833206176758 Q 325.33333460489905 158.4166653951009 325.33333460489905 158.62499872843424 Q 325.33333460489905 158.83333206176758 325.33333460489905 159.0416653951009 Q 325.33333460489905 159.24999872843424 325.33333460489905 159.45833206176758 Q 325.33333460489905 159.6666653951009 325.33333460489905 159.8749987284342 Q 325.33333460489905 160.08333206176755 325.33333460489905 160.2916653951009 Q 325.33333460489905 160.49999872843424 325.33333460489905 160.70833206176758 Q 325.33333460489905 160.9166653951009 325.33333460489905 161.1249987284342 Q 325.33333460489905 161.33333206176755 325.33333460489905 161.5416653951009 Q 325.33333460489905 161.74999872843424 325.33333460489905 161.95833206176758 Q 325.33333460489905 162.1666653951009 325.33333460489905 162.3749987284342 Q 325.33333460489905 162.58333206176755 325.33333460489905 162.7916653951009 Q 325.33333460489905 162.99999872843424 325.33333460489905 163.20833206176758 Q 325.33333460489905 163.4166653951009 325.33333460489905 163.6249987284342 Q 325.33333460489905 163.83333206176755 325.33333460489905 164.0416653951009 Q 325.33333460489905 164.24999872843424 325.33333460489905 164.45833206176758 Q 325.33333460489905 164.6666653951009 325.5416679382324 164.6666653951009 Q 325.75000127156574 164.6666653951009 325.75000127156574 164.8749987284342 Q 325.75000127156574 165.08333206176755 325.75000127156574 165.2916653951009 Q 325.75000127156574 165.49999872843424 325.75000127156574 165.70833206176758 Q 325.75000127156574 165.9166653951009 325.75000127156574 166.1249987284342 Q 325.75000127156574 166.33333206176755 325.75000127156574 166.5416653951009 Q 325.75000127156574 166.74999872843424 325.75000127156574 166.95833206176758 L 325.75000127156574 167.1726653951009" stroke-linecap="round" />
</g>
<g transform="matrix(0 1.33 1.49 0.01 258.94 299.09)"  >
<polygon style="stroke: rgb(0,0,0); stroke-width: 2; stroke-dasharray: none; stroke-linecap: butt; stroke-dashoffset: 0; stroke-linejoin: miter; stroke-miterlimit: 4; fill: rgb(218,137,16); fill-rule: nonzero; opacity: 1;" vector-effect="non-scaling-stroke"  points="-25,-50 -50,50 25,50 50,-50 " />
</g>
<g transform="matrix(-0.57 0.89 -0.89 -0.57 266.44 244.55)"  >
<polygon style="stroke: rgb(0,0,0); stroke-width: 4; stroke-dasharray: none; stroke-linecap: butt; stroke-dashoffset: 0; stroke-linejoin: miter; stroke-miterlimit: 4; fill: rgb(204,153,77); fill-rule: nonzero; opacity: 1;"  points="-50,-50 50,50 -50,50 " />
</g>
<g transform="matrix(1.72 2.39 -2.39 1.72 356.49 158.87)"  >
<path style="stroke: rgb(0,0,0); stroke-width: 2; stroke-dasharray: 15 15; stroke-linecap: square; stroke-dashoffset: 0; stroke-linejoin: miter; stroke-miterlimit: 4; fill: none; fill-rule: nonzero; opacity: 1;" vector-effect="non-scaling-stroke"  transform=" translate(-48, -48)" d="M 9.113 65.022 C 11.683 45.575 28.302 30.978 48 30.978 c 19.696 0 36.316 14.598 38.887 34.045 H 9.113 z" stroke-linecap="round" />
</g>
<g transform="matrix(-0.56 0.83 -0.83 -0.56 -72.12 14.36)"  >
<polygon style="stroke: rgb(0,0,0); stroke-width: 4; stroke-dasharray: none; stroke-linecap: butt; stroke-dashoffset: 0; stroke-linejoin: miter; stroke-miterlimit: 4; fill: rgb(218,137,16); fill-rule: nonzero; opacity: 1;"  points="-50,-50 50,50 -50,50 " />
</g>
<g transform="matrix(0.99 0 0 0.99 311.44 234.72)"  >
<line style="stroke: rgb(0,0,0); stroke-width: 2; stroke-dasharray: none; stroke-linecap: butt; stroke-dashoffset: 0; stroke-linejoin: miter; stroke-miterlimit: 4; fill: rgb(0,0,0); fill-rule: nonzero; opacity: 1;"  x1="-120.91199999999999" y1="25.48145454545454" x2="120.91199999999999" y2="-25.48145454545454" />
</g>
<g transform="matrix(0.98 -0.21 0.21 0.98 378.17 280.99)"  >
<polygon style="stroke: rgb(255,255,255); stroke-width: 8; stroke-dasharray: none; stroke-linecap: butt; stroke-dashoffset: 0; stroke-linejoin: miter; stroke-miterlimit: 4; fill: rgb(255,255,255); fill-rule: nonzero; opacity: 1;"  points="-25,-50 -50,50 25,50 50,-50 " />
</g>
<g transform="matrix(0.49 -0.75 0.41 0.27 268.76 105.8)"  >
<polygon style="stroke: rgb(255,255,255); stroke-width: 1; stroke-dasharray: none; stroke-linecap: butt; stroke-dashoffset: 0; stroke-linejoin: miter; stroke-miterlimit: 4; fill: rgb(255,255,255); fill-rule: nonzero; opacity: 1;"  points="-50,-50 -50,50 50,50 50,-50 " />
</g>
<g transform="matrix(1.09 0.72 -0.4 0.61 336.41 178)"  >
<polygon style="stroke: rgb(255,255,255); stroke-width: 2; stroke-dasharray: none; stroke-linecap: butt; stroke-dashoffset: 0; stroke-linejoin: miter; stroke-miterlimit: 4; fill: rgb(255,255,255); fill-rule: nonzero; opacity: 1;"  points="-25,-50 -50,50 25,50 50,-50 " />
</g>
<g transform="matrix(0.27 -0.39 0.28 0.19 290.15 157.77)"  >
<polygon style="stroke: rgb(255,255,255); stroke-width: 1; stroke-dasharray: none; stroke-linecap: butt; stroke-dashoffset: 0; stroke-linejoin: miter; stroke-miterlimit: 4; fill: rgb(255,255,255); fill-rule: nonzero; opacity: 1;"  points="-50,-50 -50,50 50,50 50,-50 " />
</g>
<g transform="matrix(1 0 0 1 363.78 155.99)" style=""  >
		<text xml:space="preserve" font-family="'Open Sans', sans-serif" font-size="18" font-style="normal" font-weight="normal" style="stroke: none; stroke-width: 1; stroke-dasharray: none; stroke-linecap: butt; stroke-dashoffset: 0; stroke-linejoin: miter; stroke-miterlimit: 4; fill: rgb(0,0,0); fill-rule: nonzero; opacity: 1; white-space: pre;" ><tspan x="-58.88" y="5.65" style="stroke-width: 1; font-family: 'Open Sans', sans-serif; font-size: 18px; font-style: normal; font-weight: normal; fill: rgb(0,0,0); ">Inclinacin</tspan></text>
</g>
</svg>